<svg version="1.1" viewBox="0.0 0.0 849.8477690288714 328.50656167979" fill="none" stroke="none" stroke-linecap="square" stroke-miterlimit="10" xmlns:xlink="http://www.w3.org/1999/xlink" xmlns="http://www.w3.org/2000/svg"><clipPath id="p.0"><path d="m0 0l849.8478 0l0 328.50656l-849.8478 0l0 -328.50656z" clip-rule="nonzero"/></clipPath><g clip-path="url(#p.0)"><path fill="#000000" fill-opacity="0.0" d="m0 0l849.8478 0l0 328.50656l-849.8478 0z" fill-rule="evenodd"/><path fill="#000000" fill-opacity="0.0" d="m-17.905512 -2.7559056l214.96063 0l0 84.031494l-214.96063 0z" fill-rule="evenodd"/><path fill="#000000" d="m22.892561 12.48597q3.5 0 5.109375 1.5q1.609375 1.5 1.609375 4.140625q0 1.1875 -0.359375 2.265625q-0.359375 1.078125 -1.171875 1.921875q-0.8125 0.84375 -2.15625 1.328125q-1.34375 0.484375 -3.328125 0.484375l-1.640625 0l0 6.4375l-3.828125 0l0 -18.078125l5.765625 0zm-0.1875 3.140625l-1.75 0l0 5.359375l1.265625 0q1.078125 0 1.859375 -0.28125q0.796875 -0.28125 1.21875 -0.890625q0.4375 -0.609375 0.4375 -1.5625q0 -1.328125 -0.75 -1.96875q-0.734375 -0.65625 -2.28125 -0.65625zm15.685534 0.828125q2.78125 0 4.265625 1.21875q1.484375 1.203125 1.484375 3.671875l0 9.21875l-2.625 0l-0.734375 -1.875l-0.09375 0q-0.59375 0.734375 -1.21875 1.203125q-0.625 0.46875 -1.421875 0.6875q-0.796875 0.234375 -1.953125 0.234375q-1.21875 0 -2.203125 -0.46875q-0.96875 -0.46875 -1.53125 -1.4375q-0.5468769 -0.984375 -0.5468769 -2.46875q0 -2.203125 1.5468769 -3.25q1.546875 -1.046875 4.640625 -1.15625l2.390625 -0.078125l0 -0.609375q0 -1.078125 -0.5625 -1.578125q-0.5625 -0.515625 -1.578125 -0.515625q-1.0 0 -1.96875 0.28125q-0.96875 0.28125 -1.9375 0.71875l-1.25 -2.546875q1.109375 -0.578125 2.46875 -0.90625q1.375 -0.34375 2.828125 -0.34375zm2.0 7.703125l-1.453125 0.046875q-1.828125 0.046875 -2.546875 0.65625q-0.703125 0.609375 -0.703125 1.59375q0 0.875 0.5 1.234375q0.515625 0.359375 1.328125 0.359375q1.21875 0 2.046875 -0.703125q0.828125 -0.71875 0.828125 -2.046875l0 -1.140625zm13.454544 3.640625q0.625 0 1.203125 -0.109375q0.59375 -0.125 1.171875 -0.3125l0 2.796875q-0.59375 0.28125 -1.5 0.453125q-0.890625 0.1875 -1.953125 0.1875q-1.234375 0 -2.21875 -0.40625q-0.984375 -0.40625 -1.546875 -1.390625q-0.5625 -1.0 -0.5625 -2.78125l0 -6.671875l-1.8125 0l0 -1.59375l2.078125 -1.25l1.09375 -2.921875l2.40625 0l0 2.9375l3.875 0l0 2.828125l-3.875 0l0 6.671875q0 0.796875 0.453125 1.1875q0.453125 0.375 1.1875 0.375zm10.791367 3.015625q-2.046875 0 -3.5 -0.75q-1.453125 -0.75 -2.203125 -2.3125q-0.75 -1.578125 -0.75 -4.03125q0 -2.53125 0.859375 -4.125q0.859375 -1.609375 2.375 -2.359375q1.53125 -0.765625 3.546875 -0.765625q1.4375 0 2.484375 0.28125q1.046875 0.28125 1.828125 0.671875l-1.109375 2.90625q-0.890625 -0.359375 -1.671875 -0.578125q-0.765625 -0.234375 -1.53125 -0.234375q-0.984375 0 -1.640625 0.46875q-0.65625 0.46875 -0.984375 1.390625q-0.3125 0.921875 -0.3125 2.328125q0 1.375 0.34375 2.28125q0.34375 0.890625 1.0 1.328125q0.65625 0.4375 1.59375 0.4375q1.1875 0 2.09375 -0.3125q0.921875 -0.3125 1.78125 -0.875l0 3.21875q-0.859375 0.546875 -1.8125 0.78125q-0.9375 0.25 -2.390625 0.25zm11.17897 -19.5l0 3.921875q0 1.03125 -0.078125 1.96875q-0.0625 0.921875 -0.09375 1.296875l0.203125 0q0.4375 -0.71875 1.046875 -1.15625q0.609375 -0.453125 1.34375 -0.65625q0.75 -0.21875 1.609375 -0.21875q1.5 0 2.609375 0.53125q1.109375 0.53125 1.71875 1.65625q0.625 1.109375 0.625 2.890625l0 9.015625l-3.765625 0l0 -8.078125q0 -1.484375 -0.546875 -2.234375q-0.546875 -0.75 -1.671875 -0.75q-1.140625 0 -1.796875 0.53125q-0.65625 0.515625 -0.9375 1.53125q-0.265625 1.015625 -0.265625 2.5l0 6.5l-3.765625 0l0 -19.25l3.765625 0zm16.646317 5.421875l0 13.828125l-3.765625 0l0 -13.828125l3.765625 0zm-1.875 -5.421875q0.84375 0 1.4375 0.390625q0.609375 0.390625 0.609375 1.453125q0 1.0625 -0.609375 1.46875q-0.59375 0.390625 -1.4375 0.390625q-0.859375 0 -1.46875 -0.390625q-0.59375 -0.40625 -0.59375 -1.46875q0 -1.0625 0.59375 -1.453125q0.609375 -0.390625 1.46875 -0.390625zm13.682663 5.15625q2.21875 0 3.5625 1.21875q1.34375 1.203125 1.34375 3.859375l0 9.015625l-3.765625 0l0 -8.078125q0 -1.484375 -0.546875 -2.234375q-0.53125 -0.75 -1.671875 -0.75q-1.734375 0 -2.375 1.171875q-0.625 1.171875 -0.625 3.390625l0 6.5l-3.765625 0l0 -13.828125l2.875 0l0.515625 1.765625l0.203125 0q0.4375 -0.71875 1.09375 -1.15625q0.671875 -0.453125 1.484375 -0.65625q0.8125 -0.21875 1.671875 -0.21875zm12.833824 20.171875q-2.890625 0 -4.421875 -1.015625q-1.515625 -1.0 -1.515625 -2.8125q0 -1.25 0.765625 -2.09375q0.78125 -0.84375 2.296875 -1.1875q-0.578125 -0.25 -1.015625 -0.8125q-0.4375 -0.5625 -0.4375 -1.203125q0 -0.78125 0.453125 -1.3125q0.46875 -0.53125 1.328125 -1.03125q-1.078125 -0.46875 -1.71875 -1.5q-0.640625 -1.046875 -0.640625 -2.453125q0 -1.515625 0.65625 -2.5625q0.671875 -1.0625 1.9375 -1.625q1.265625 -0.5625 3.09375 -0.5625q0.375 0 0.875 0.0625q0.515625 0.046875 0.9375 0.109375q0.4375 0.0625 0.578125 0.09375l4.828125 0l0 1.921875l-2.171875 0.546875q0.296875 0.46875 0.4375 0.984375q0.15625 0.515625 0.15625 1.09375q0 2.234375 -1.546875 3.484375q-1.546875 1.234375 -4.3125 1.234375q-0.65625 -0.03125 -1.234375 -0.09375q-0.28125 0.21875 -0.4375 0.46875q-0.140625 0.25 -0.140625 0.515625q0 0.265625 0.21875 0.453125q0.234375 0.171875 0.6875 0.265625q0.46875 0.09375 1.171875 0.09375l2.34375 0q2.28125 0 3.46875 0.984375q1.1875 0.96875 1.1875 2.859375q0 2.421875 -2.015625 3.75q-2.015625 1.34375 -5.8125 1.34375zm0.171875 -2.453125q1.34375 0 2.3125 -0.265625q0.96875 -0.25 1.484375 -0.71875q0.53125 -0.453125 0.53125 -1.09375q0 -0.515625 -0.3125 -0.828125q-0.296875 -0.296875 -0.90625 -0.421875q-0.609375 -0.125 -1.5625 -0.125l-1.953125 0q-0.703125 0 -1.25 0.21875q-0.546875 0.234375 -0.875 0.625q-0.3125 0.40625 -0.3125 0.9375q0 0.78125 0.734375 1.21875q0.75 0.453125 2.109375 0.453125zm0.609375 -10.484375q1.0625 0 1.546875 -0.65625q0.5 -0.65625 0.5 -1.78125q0 -1.25 -0.515625 -1.875q-0.515625 -0.625 -1.53125 -0.625q-1.046875 0 -1.5625 0.625q-0.515625 0.625 -0.515625 1.875q0 1.125 0.5 1.78125q0.515625 0.65625 1.578125 0.65625zm28.638268 -0.078125q0 1.734375 -0.46875 3.078125q-0.46875 1.328125 -1.359375 2.25q-0.875 0.921875 -2.125 1.390625q-1.234375 0.46875 -2.796875 0.46875q-1.453125 0 -2.671875 -0.46875q-1.21875 -0.46875 -2.125 -1.390625q-0.890625 -0.921875 -1.375 -2.25q-0.484375 -1.34375 -0.484375 -3.078125q0 -2.296875 0.8125 -3.890625q0.8125 -1.59375 2.3125 -2.421875q1.515625 -0.84375 3.609375 -0.84375q1.9375 0 3.4375 0.84375q1.515625 0.828125 2.375 2.421875q0.859375 1.59375 0.859375 3.890625zm-9.5625 0q0 1.359375 0.296875 2.296875q0.296875 0.921875 0.921875 1.390625q0.640625 0.46875 1.65625 0.46875q1.0 0 1.625 -0.46875q0.625 -0.46875 0.90625 -1.390625q0.296875 -0.9375 0.296875 -2.296875q0 -1.375 -0.296875 -2.28125q-0.28125 -0.90625 -0.921875 -1.359375q-0.625 -0.46875 -1.640625 -0.46875q-1.5 0 -2.171875 1.03125q-0.671875 1.03125 -0.671875 3.078125zm20.525421 -7.15625q2.21875 0 3.5625 1.21875q1.34375 1.203125 1.34375 3.859375l0 9.015625l-3.765625 0l0 -8.078125q0 -1.484375 -0.546875 -2.234375q-0.53125 -0.75 -1.671875 -0.75q-1.734375 0 -2.375 1.171875q-0.625 1.171875 -0.625 3.390625l0 6.5l-3.765625 0l0 -13.828125l2.875 0l0.515625 1.765625l0.203125 0q0.4375 -0.71875 1.09375 -1.15625q0.671875 -0.453125 1.484375 -0.65625q0.8125 -0.21875 1.671875 -0.21875z" fill-rule="nonzero"/><path fill="#000000" d="m18.708113 46.85472q2.78125 0 4.265625 1.21875q1.484375 1.203125 1.484375 3.671875l0 9.21875l-2.625 0l-0.734375 -1.875l-0.09375 0q-0.59375 0.734375 -1.21875 1.203125q-0.625 0.46875 -1.421875 0.6875q-0.796875 0.234375 -1.953125 0.234375q-1.21875 0 -2.203125 -0.46875q-0.96875 -0.46875 -1.53125 -1.4375q-0.546875 -0.984375 -0.546875 -2.46875q0 -2.203125 1.546875 -3.25q1.546875 -1.046875 4.640625 -1.15625l2.390625 -0.078125l0 -0.609375q0 -1.078125 -0.5625 -1.578125q-0.5625 -0.515625 -1.578125 -0.515625q-1.0 0 -1.96875 0.28125q-0.96875 0.28125 -1.9375 0.71875l-1.25 -2.546875q1.109375 -0.578125 2.46875 -0.90625q1.375 -0.34375 2.828125 -0.34375zm2.0 7.703125l-1.453125 0.046875q-1.828125 0.046875 -2.546875 0.65625q-0.703125 0.609375 -0.703125 1.59375q0 0.875 0.5 1.234375q0.515625 0.359375 1.328125 0.359375q1.21875 0 2.046875 -0.703125q0.828125 -0.71875 0.828125 -2.046875l0 -1.140625zm23.862047 2.296875q0 1.40625 -0.671875 2.390625q-0.65625 0.96875 -1.96875 1.46875q-1.296875 0.5 -3.265625 0.5q-1.4375 0 -2.46875 -0.1875q-1.03125 -0.1875 -2.09375 -0.625l0 -3.109375q1.125 0.5 2.421875 0.828125q1.296875 0.328125 2.265625 0.328125q1.109375 0 1.578125 -0.328125q0.484375 -0.328125 0.484375 -0.859375q0 -0.34375 -0.203125 -0.609375q-0.1875 -0.28125 -0.8125 -0.640625q-0.625 -0.359375 -1.984375 -0.921875q-1.296875 -0.546875 -2.140625 -1.09375q-0.828125 -0.5625 -1.234375 -1.3125q-0.390625 -0.765625 -0.390625 -1.953125q0 -1.90625 1.484375 -2.875q1.5 -0.984375 3.984375 -0.984375q1.296875 0 2.453125 0.265625q1.171875 0.265625 2.421875 0.828125l-1.140625 2.71875q-1.03125 -0.4375 -1.9375 -0.71875q-0.90625 -0.296875 -1.859375 -0.296875q-0.828125 0 -1.25 0.234375q-0.40625 0.21875 -0.40625 0.671875q0 0.34375 0.203125 0.609375q0.21875 0.25 0.84375 0.5625q0.625 0.3125 1.84375 0.8125q1.171875 0.484375 2.03125 1.015625q0.875 0.515625 1.34375 1.296875q0.46875 0.765625 0.46875 1.984375zm6.714859 -9.71875l0 13.828125l-3.765625 0l0 -13.828125l3.765625 0zm-1.875 -5.421875q0.84375 0 1.4375 0.390625q0.609375 0.390625 0.609375 1.453125q0 1.0625 -0.609375 1.46875q-0.59375 0.390625 -1.4375 0.390625q-0.859375 0 -1.46875 -0.390625q-0.59375 -0.40625 -0.59375 -1.46875q0 -1.0625 0.59375 -1.453125q0.609375 -0.390625 1.46875 -0.390625zm13.682663 5.15625q2.21875 0 3.5625 1.21875q1.34375 1.203125 1.34375 3.859375l0 9.015625l-3.765625 0l0 -8.078125q0 -1.484375 -0.546875 -2.234375q-0.53125 -0.75 -1.671875 -0.75q-1.734375 0 -2.375 1.171875q-0.625 1.171875 -0.625 3.390625l0 6.5l-3.765625 0l0 -13.828125l2.875 0l0.515625 1.765625l0.203125 0q0.4375 -0.71875 1.09375 -1.15625q0.671875 -0.453125 1.484375 -0.65625q0.8125 -0.21875 1.671875 -0.21875zm12.833817 20.171875q-2.890625 0 -4.421875 -1.015625q-1.515625 -1.0 -1.515625 -2.8125q0 -1.25 0.765625 -2.09375q0.78125 -0.84375 2.296875 -1.1875q-0.578125 -0.25 -1.015625 -0.8125q-0.4375 -0.5625 -0.4375 -1.203125q0 -0.78125 0.453125 -1.3125q0.46875 -0.53125 1.328125 -1.03125q-1.078125 -0.46875 -1.71875 -1.5q-0.640625 -1.046875 -0.640625 -2.453125q0 -1.515625 0.65625 -2.5625q0.671875 -1.0625 1.9375 -1.625q1.265625 -0.5625 3.09375 -0.5625q0.375 0 0.875 0.0625q0.515625 0.046875 0.9375 0.109375q0.4375 0.0625 0.578125 0.09375l4.828125 0l0 1.921875l-2.171875 0.546875q0.296875 0.46875 0.4375 0.984375q0.15625 0.515625 0.15625 1.09375q0 2.234375 -1.546875 3.484375q-1.546875 1.234375 -4.3125 1.234375q-0.65625 -0.03125 -1.234375 -0.09375q-0.28125 0.21875 -0.4375 0.46875q-0.140625 0.25 -0.140625 0.515625q0 0.265625 0.21875 0.453125q0.234375 0.171875 0.6875 0.265625q0.46875 0.09375 1.171875 0.09375l2.34375 0q2.28125 0 3.46875 0.984375q1.1875 0.96875 1.1875 2.859375q0 2.421875 -2.015625 3.75q-2.015625 1.34375 -5.8125 1.34375zm0.171875 -2.453125q1.34375 0 2.3125 -0.265625q0.96875 -0.25 1.484375 -0.71875q0.53125 -0.453125 0.53125 -1.09375q0 -0.515625 -0.3125 -0.828125q-0.296875 -0.296875 -0.90625 -0.421875q-0.609375 -0.125 -1.5625 -0.125l-1.953125 0q-0.703125 0 -1.25 0.21875q-0.546875 0.234375 -0.875 0.625q-0.3125 0.40625 -0.3125 0.9375q0 0.78125 0.734375 1.21875q0.75 0.453125 2.109375 0.453125zm0.609375 -10.484375q1.0625 0 1.546875 -0.65625q0.5 -0.65625 0.5 -1.78125q0 -1.25 -0.515625 -1.875q-0.515625 -0.625 -1.53125 -0.625q-1.046875 0 -1.5625 0.625q-0.515625 0.625 -0.515625 1.875q0 1.125 0.5 1.78125q0.515625 0.65625 1.578125 0.65625zm13.262039 6.859375l-3.765625 0l0 -19.25l3.765625 0l0 19.25zm9.667038 -14.09375q1.90625 0 3.296875 0.75q1.390625 0.734375 2.140625 2.140625q0.75 1.390625 0.75 3.40625l0 1.828125l-8.921875 0q0.0625 1.59375 0.953125 2.5q0.90625 0.90625 2.5 0.90625q1.328125 0 2.421875 -0.265625q1.109375 -0.28125 2.265625 -0.8125l0 2.90625q-1.015625 0.515625 -2.140625 0.75q-1.125 0.234375 -2.71875 0.234375q-2.078125 0 -3.6875 -0.765625q-1.59375 -0.765625 -2.5 -2.328125q-0.90625 -1.578125 -0.90625 -3.96875q0 -2.421875 0.8125 -4.03125q0.828125 -1.625 2.296875 -2.4375q1.46875 -0.8125 3.4375 -0.8125zm0.015625 2.6875q-1.09375 0 -1.828125 0.703125q-0.71875 0.703125 -0.828125 2.21875l5.296875 0q-0.015625 -0.84375 -0.3125 -1.5q-0.28125 -0.65625 -0.859375 -1.03125q-0.578125 -0.390625 -1.46875 -0.390625zm21.637505 8.640625q0.625 0 1.203125 -0.109375q0.59375 -0.125 1.171875 -0.3125l0 2.796875q-0.59375 0.28125 -1.5 0.453125q-0.890625 0.1875 -1.953125 0.1875q-1.234375 0 -2.21875 -0.40625q-0.984375 -0.40625 -1.546875 -1.390625q-0.5625 -1.0 -0.5625 -2.78125l0 -6.671875l-1.8125 0l0 -1.59375l2.078125 -1.25l1.09375 -2.921875l2.40625 0l0 2.9375l3.875 0l0 2.828125l-3.875 0l0 6.671875q0 0.796875 0.453125 1.1875q0.453125 0.375 1.1875 0.375zm10.838219 -11.34375q2.78125 0 4.265625 1.21875q1.484375 1.203125 1.484375 3.671875l0 9.21875l-2.625 0l-0.734375 -1.875l-0.09375 0q-0.59375 0.734375 -1.21875 1.203125q-0.625 0.46875 -1.421875 0.6875q-0.796875 0.234375 -1.953125 0.234375q-1.21875 0 -2.2031174 -0.46875q-0.96875 -0.46875 -1.53125 -1.4375q-0.546875 -0.984375 -0.546875 -2.46875q0 -2.203125 1.546875 -3.25q1.5468674 -1.046875 4.6406174 -1.15625l2.390625 -0.078125l0 -0.609375q0 -1.078125 -0.5625 -1.578125q-0.5625 -0.515625 -1.578125 -0.515625q-1.0 0 -1.96875 0.28125q-0.96875 0.28125 -1.9375 0.71875l-1.2499924 -2.546875q1.109375 -0.578125 2.4687424 -0.90625q1.375 -0.34375 2.828125 -0.34375zm2.0 7.703125l-1.453125 0.046875q-1.828125 0.046875 -2.546875 0.65625q-0.703125 0.609375 -0.703125 1.59375q0 0.875 0.5 1.234375q0.515625 0.359375 1.328125 0.359375q1.21875 0 2.046875 -0.703125q0.828125 -0.71875 0.828125 -2.046875l0 -1.140625zm17.282684 2.296875q0 1.40625 -0.671875 2.390625q-0.65625 0.96875 -1.96875 1.46875q-1.296875 0.5 -3.265625 0.5q-1.4375 0 -2.46875 -0.1875q-1.03125 -0.1875 -2.09375 -0.625l0 -3.109375q1.125 0.5 2.421875 0.828125q1.296875 0.328125 2.265625 0.328125q1.109375 0 1.578125 -0.328125q0.484375 -0.328125 0.484375 -0.859375q0 -0.34375 -0.203125 -0.609375q-0.1875 -0.28125 -0.8125 -0.640625q-0.625 -0.359375 -1.984375 -0.921875q-1.296875 -0.546875 -2.140625 -1.09375q-0.828125 -0.5625 -1.234375 -1.3125q-0.390625 -0.765625 -0.390625 -1.953125q0 -1.90625 1.484375 -2.875q1.5 -0.984375 3.984375 -0.984375q1.296875 0 2.453125 0.265625q1.171875 0.265625 2.421875 0.828125l-1.140625 2.71875q-1.03125 -0.4375 -1.9375 -0.71875q-0.90625 -0.296875 -1.859375 -0.296875q-0.828125 0 -1.25 0.234375q-0.40625 0.21875 -0.40625 0.671875q0 0.34375 0.203125 0.609375q0.21875 0.25 0.84375 0.5625q0.625 0.3125 1.84375 0.8125q1.171875 0.484375 2.03125 1.015625q0.875 0.515625 1.34375 1.296875q0.46875 0.765625 0.46875 1.984375zm6.7148438 -15.140625l0 8.609375q0 0.78125 -0.0625 1.5625q-0.0625 0.78125 -0.140625 1.5625l0.0625 0q0.375 -0.546875 0.78125 -1.078125q0.40625 -0.53125 0.859375 -1.03125l3.875 -4.203125l4.25 0l-5.5 6.0l5.828125 7.828125l-4.34375 0l-3.984375 -5.609375l-1.625 1.3125l0 4.296875l-3.765625 0l0 -19.25l3.765625 0z" fill-rule="nonzero"/><path fill="#fff2cc" d="m21.774857 198.6915l0 0c0 -12.541641 10.216368 -22.708664 22.818897 -22.708664l0 0c6.0519485 0 11.856026 2.392517 16.135399 6.6512146c4.2793694 4.2586975 6.6834984 10.034744 6.6834984 16.05745l0 0c0 12.5416565 -10.21637 22.708664 -22.818897 22.708664l0 0c-12.60253 0 -22.818897 -10.167007 -22.818897 -22.708664z" fill-rule="evenodd"/><path stroke="#434343" stroke-width="3.0" stroke-linejoin="round" stroke-linecap="butt" d="m21.774857 198.6915l0 0c0 -12.541641 10.216368 -22.708664 22.818897 -22.708664l0 0c6.0519485 0 11.856026 2.392517 16.135399 6.6512146c4.2793694 4.2586975 6.6834984 10.034744 6.6834984 16.05745l0 0c0 12.5416565 -10.21637 22.708664 -22.818897 22.708664l0 0c-12.60253 0 -22.818897 -10.167007 -22.818897 -22.708664z" fill-rule="evenodd"/><path fill="#f4cccc" d="m67.52183 142.89622l0 0c0 -12.541641 10.21637 -22.708664 22.818901 -22.708664l0 0c6.0519485 0 11.856018 2.392517 16.135391 6.6512146c4.279373 4.2586975 6.683502 10.034744 6.683502 16.05745l0 0c0 12.541641 -10.21637 22.708664 -22.818893 22.708664l0 0c-12.602531 0 -22.818901 -10.167023 -22.818901 -22.708664z" fill-rule="evenodd"/><path stroke="#434343" stroke-width="3.0" stroke-linejoin="round" stroke-linecap="butt" d="m67.52183 142.89622l0 0c0 -12.541641 10.21637 -22.708664 22.818901 -22.708664l0 0c6.0519485 0 11.856018 2.392517 16.135391 6.6512146c4.279373 4.2586975 6.683502 10.034744 6.683502 16.05745l0 0c0 12.541641 -10.21637 22.708664 -22.818893 22.708664l0 0c-12.602531 0 -22.818901 -10.167023 -22.818901 -22.708664z" fill-rule="evenodd"/><path fill="#fff2cc" d="m151.35321 216.81221l0 0c-9.90773 7.6875 -24.2118 5.820938 -31.949432 -4.1691437c-7.7376328 -9.990067 -5.978897 -24.3208 3.928299 -32.009003l14.0112 18.088593z" fill-rule="evenodd"/><path stroke="#434343" stroke-width="3.0" stroke-linejoin="round" stroke-linecap="butt" d="m151.35321 216.81221l0 0c-9.90773 7.6875 -24.2118 5.820938 -31.949432 -4.1691437c-7.7376328 -9.990067 -5.978897 -24.3208 3.928299 -32.009003l14.0112 18.088593z" fill-rule="evenodd"/><path fill="#f4cccc" d="m123.334564 180.61972l0 0c9.907745 -7.6874847 24.211807 -5.820923 31.949432 4.1691437c7.7376404 9.990067 5.978897 24.320816 -3.928299 32.009003l-14.0112 -18.088577z" fill-rule="evenodd"/><path stroke="#434343" stroke-width="3.0" stroke-linejoin="round" stroke-linecap="butt" d="m123.334564 180.61972l0 0c9.907745 -7.6874847 24.211807 -5.820923 31.949432 4.1691437c7.7376404 9.990067 5.978897 24.320816 -3.928299 32.009003l-14.0112 -18.088577z" fill-rule="evenodd"/><path fill="#000000" fill-opacity="0.0" d="m59.06824 180.54855l16.22047 -19.496063" fill-rule="evenodd"/><path stroke="#434343" stroke-width="3.0" stroke-linejoin="round" stroke-linecap="butt" d="m59.06824 180.54855l4.708149 -5.6589203" fill-rule="evenodd"/><path fill="#434343" stroke="#434343" stroke-width="3.0" stroke-linecap="butt" d="m67.5856 178.05885l4.8981323 -13.634933l-12.516552 7.2964935z" fill-rule="evenodd"/><path fill="#000000" fill-opacity="0.0" d="m105.38058 161.26302l16.125984 20.15747" fill-rule="evenodd"/><path stroke="#434343" stroke-width="3.0" stroke-linejoin="round" stroke-linecap="butt" d="m105.38058 161.26302l4.8814774 6.101837" fill-rule="evenodd"/><path stroke="#434343" stroke-width="3.0" stroke-linecap="butt" d="m106.39269 170.46034l12.374138 7.535492l-4.635414 -13.726456z" fill-rule="evenodd"/><path fill="#000000" fill-opacity="0.0" d="m67.522484 198.68362l46.33071 0" fill-rule="evenodd"/><path stroke="#434343" stroke-width="3.0" stroke-linejoin="round" stroke-linecap="butt" d="m67.522484 198.68362l28.330711 0" fill-rule="evenodd"/><path stroke="#434343" stroke-width="3.0" stroke-linecap="butt" d="m95.853195 203.63882l13.614288 -4.9552l-13.614288 -4.9552z" fill-rule="evenodd"/><path fill="#000000" fill-opacity="0.0" d="m304.895 -2.7559056l431.7795 0l0 51.716534l-431.7795 0z" fill-rule="evenodd"/><path fill="#000000" d="m360.58755 12.48597q3.5 0 5.109375 1.5q1.609375 1.5 1.609375 4.140625q0 1.1875 -0.359375 2.265625q-0.359375 1.078125 -1.171875 1.921875q-0.8125 0.84375 -2.15625 1.328125q-1.34375 0.484375 -3.328125 0.484375l-1.640625 0l0 6.4375l-3.828125 0l0 -18.078125l5.765625 0zm-0.1875 3.140625l-1.75 0l0 5.359375l1.265625 0q1.078125 0 1.859375 -0.28125q0.796875 -0.28125 1.21875 -0.890625q0.4375 -0.609375 0.4375 -1.5625q0 -1.328125 -0.75 -1.96875q-0.734375 -0.65625 -2.28125 -0.65625zm15.685547 0.828125q2.78125 0 4.265625 1.21875q1.484375 1.203125 1.484375 3.671875l0 9.21875l-2.625 0l-0.734375 -1.875l-0.09375 0q-0.59375 0.734375 -1.21875 1.203125q-0.625 0.46875 -1.421875 0.6875q-0.796875 0.234375 -1.953125 0.234375q-1.21875 0 -2.203125 -0.46875q-0.96875 -0.46875 -1.53125 -1.4375q-0.546875 -0.984375 -0.546875 -2.46875q0 -2.203125 1.546875 -3.25q1.546875 -1.046875 4.640625 -1.15625l2.390625 -0.078125l0 -0.609375q0 -1.078125 -0.5625 -1.578125q-0.5625 -0.515625 -1.578125 -0.515625q-1.0 0 -1.96875 0.28125q-0.96875 0.28125 -1.9375 0.71875l-1.25 -2.546875q1.109375 -0.578125 2.46875 -0.90625q1.375 -0.34375 2.828125 -0.34375zm2.0 7.703125l-1.453125 0.046875q-1.828125 0.046875 -2.546875 0.65625q-0.703125 0.609375 -0.703125 1.59375q0 0.875 0.5 1.234375q0.515625 0.359375 1.328125 0.359375q1.21875 0 2.046875 -0.703125q0.828125 -0.71875 0.828125 -2.046875l0 -1.140625zm13.454529 3.640625q0.625 0 1.203125 -0.109375q0.59375 -0.125 1.171875 -0.3125l0 2.796875q-0.59375 0.28125 -1.5 0.453125q-0.890625 0.1875 -1.953125 0.1875q-1.234375 0 -2.21875 -0.40625q-0.984375 -0.40625 -1.546875 -1.390625q-0.5625 -1.0 -0.5625 -2.78125l0 -6.671875l-1.8125 0l0 -1.59375l2.078125 -1.25l1.09375 -2.921875l2.40625 0l0 2.9375l3.875 0l0 2.828125l-3.875 0l0 6.671875q0 0.796875 0.453125 1.1875q0.453125 0.375 1.1875 0.375zm10.791382 3.015625q-2.046875 0 -3.5 -0.75q-1.453125 -0.75 -2.203125 -2.3125q-0.75 -1.578125 -0.75 -4.03125q0 -2.53125 0.859375 -4.125q0.859375 -1.609375 2.375 -2.359375q1.53125 -0.765625 3.546875 -0.765625q1.4375 0 2.484375 0.28125q1.046875 0.28125 1.828125 0.671875l-1.109375 2.90625q-0.890625 -0.359375 -1.671875 -0.578125q-0.765625 -0.234375 -1.53125 -0.234375q-0.984375 0 -1.640625 0.46875q-0.65625 0.46875 -0.984375 1.390625q-0.3125 0.921875 -0.3125 2.328125q0 1.375 0.34375 2.28125q0.34375 0.890625 1.0 1.328125q0.65625 0.4375 1.59375 0.4375q1.1875 0 2.09375 -0.3125q0.921875 -0.3125 1.78125 -0.875l0 3.21875q-0.859375 0.546875 -1.8125 0.78125q-0.9375 0.25 -2.390625 0.25zm11.178955 -19.5l0 3.921875q0 1.03125 -0.078125 1.96875q-0.0625 0.921875 -0.09375 1.296875l0.203125 0q0.4375 -0.71875 1.046875 -1.15625q0.609375 -0.453125 1.34375 -0.65625q0.75 -0.21875 1.609375 -0.21875q1.5 0 2.609375 0.53125q1.109375 0.53125 1.71875 1.65625q0.625 1.109375 0.625 2.890625l0 9.015625l-3.765625 0l0 -8.078125q0 -1.484375 -0.546875 -2.234375q-0.546875 -0.75 -1.671875 -0.75q-1.140625 0 -1.796875 0.53125q-0.65625 0.515625 -0.9375 1.53125q-0.265625 1.015625 -0.265625 2.5l0 6.5l-3.765625 0l0 -19.25l3.765625 0zm16.646332 5.421875l0 13.828125l-3.765625 0l0 -13.828125l3.765625 0zm-1.875 -5.421875q0.84375 0 1.4375 0.390625q0.609375 0.390625 0.609375 1.453125q0 1.0625 -0.609375 1.46875q-0.59375 0.390625 -1.4375 0.390625q-0.859375 0 -1.46875 -0.390625q-0.59375 -0.40625 -0.59375 -1.46875q0 -1.0625 0.59375 -1.453125q0.609375 -0.390625 1.46875 -0.390625zm13.682648 5.15625q2.21875 0 3.5625 1.21875q1.34375 1.203125 1.34375 3.859375l0 9.015625l-3.765625 0l0 -8.078125q0 -1.484375 -0.546875 -2.234375q-0.53125 -0.75 -1.671875 -0.75q-1.734375 0 -2.375 1.171875q-0.625 1.171875 -0.625 3.390625l0 6.5l-3.765625 0l0 -13.828125l2.875 0l0.515625 1.765625l0.203125 0q0.4375 -0.71875 1.09375 -1.15625q0.671875 -0.453125 1.484375 -0.65625q0.8125 -0.21875 1.671875 -0.21875zm12.833832 20.171875q-2.890625 0 -4.421875 -1.015625q-1.515625 -1.0 -1.515625 -2.8125q0 -1.25 0.765625 -2.09375q0.78125 -0.84375 2.296875 -1.1875q-0.578125 -0.25 -1.015625 -0.8125q-0.4375 -0.5625 -0.4375 -1.203125q0 -0.78125 0.453125 -1.3125q0.46875 -0.53125 1.328125 -1.03125q-1.078125 -0.46875 -1.71875 -1.5q-0.640625 -1.046875 -0.640625 -2.453125q0 -1.515625 0.65625 -2.5625q0.671875 -1.0625 1.9375 -1.625q1.265625 -0.5625 3.09375 -0.5625q0.375 0 0.875 0.0625q0.515625 0.046875 0.9375 0.109375q0.4375 0.0625 0.578125 0.09375l4.828125 0l0 1.921875l-2.171875 0.546875q0.296875 0.46875 0.4375 0.984375q0.15625 0.515625 0.15625 1.09375q0 2.234375 -1.546875 3.484375q-1.546875 1.234375 -4.3125 1.234375q-0.65625 -0.03125 -1.234375 -0.09375q-0.28125 0.21875 -0.4375 0.46875q-0.140625 0.25 -0.140625 0.515625q0 0.265625 0.21875 0.453125q0.234375 0.171875 0.6875 0.265625q0.46875 0.09375 1.171875 0.09375l2.34375 0q2.28125 0 3.46875 0.984375q1.1875 0.96875 1.1875 2.859375q0 2.421875 -2.015625 3.75q-2.015625 1.34375 -5.8125 1.34375zm0.171875 -2.453125q1.34375 0 2.3125 -0.265625q0.96875 -0.25 1.484375 -0.71875q0.53125 -0.453125 0.53125 -1.09375q0 -0.515625 -0.3125 -0.828125q-0.296875 -0.296875 -0.90625 -0.421875q-0.609375 -0.125 -1.5625 -0.125l-1.953125 0q-0.703125 0 -1.25 0.21875q-0.546875 0.234375 -0.875 0.625q-0.3125 0.40625 -0.3125 0.9375q0 0.78125 0.734375 1.21875q0.75 0.453125 2.109375 0.453125zm0.609375 -10.484375q1.0625 0 1.546875 -0.65625q0.5 -0.65625 0.5 -1.78125q0 -1.25 -0.515625 -1.875q-0.515625 -0.625 -1.53125 -0.625q-1.046875 0 -1.5625 0.625q-0.515625 0.625 -0.515625 1.875q0 1.125 0.5 1.78125q0.515625 0.65625 1.578125 0.65625zm28.638275 -0.078125q0 1.734375 -0.46875 3.078125q-0.46875 1.328125 -1.359375 2.25q-0.875 0.921875 -2.125 1.390625q-1.234375 0.46875 -2.796875 0.46875q-1.453125 0 -2.671875 -0.46875q-1.21875 -0.46875 -2.125 -1.390625q-0.890625 -0.921875 -1.375 -2.25q-0.484375 -1.34375 -0.484375 -3.078125q0 -2.296875 0.8125 -3.890625q0.8125 -1.59375 2.3125 -2.421875q1.515625 -0.84375 3.609375 -0.84375q1.9375 0 3.4375 0.84375q1.515625 0.828125 2.375 2.421875q0.859375 1.59375 0.859375 3.890625zm-9.5625 0q0 1.359375 0.296875 2.296875q0.296875 0.921875 0.921875 1.390625q0.640625 0.46875 1.65625 0.46875q1.0 0 1.625 -0.46875q0.625 -0.46875 0.90625 -1.390625q0.296875 -0.9375 0.296875 -2.296875q0 -1.375 -0.296875 -2.28125q-0.28125 -0.90625 -0.921875 -1.359375q-0.625 -0.46875 -1.640625 -0.46875q-1.5 0 -2.171875 1.03125q-0.671875 1.03125 -0.671875 3.078125zm20.525421 -7.15625q2.21875 0 3.5625 1.21875q1.34375 1.203125 1.34375 3.859375l0 9.015625l-3.765625 0l0 -8.078125q0 -1.484375 -0.546875 -2.234375q-0.53125 -0.75 -1.671875 -0.75q-1.734375 0 -2.375 1.171875q-0.625 1.171875 -0.625 3.390625l0 6.5l-3.765625 0l0 -13.828125l2.875 0l0.515625 1.765625l0.203125 0q0.4375 -0.71875 1.09375 -1.15625q0.671875 -0.453125 1.484375 -0.65625q0.8125 -0.21875 1.671875 -0.21875zm31.616333 0q2.34375 0 3.546875 1.21875q1.21875 1.203125 1.21875 3.859375l0 9.015625l-3.796875 0l0 -8.078125q0 -1.484375 -0.5 -2.234375q-0.5 -0.75 -1.578125 -0.75q-1.484375 0 -2.125 1.078125q-0.625 1.0625 -0.625 3.046875l0 6.9375l-3.765625 0l0 -8.078125q0 -0.984375 -0.234375 -1.65625q-0.21875 -0.671875 -0.6875 -1.0q-0.453125 -0.328125 -1.15625 -0.328125q-1.0625 0 -1.65625 0.53125q-0.59375 0.515625 -0.859375 1.53125q-0.25 1.015625 -0.25 2.5l0 6.5l-3.765625 0l0 -13.828125l2.875 0l0.515625 1.765625l0.203125 0q0.421875 -0.71875 1.046875 -1.15625q0.640625 -0.453125 1.40625 -0.65625q0.78125 -0.21875 1.5625 -0.21875q1.53125 0 2.578125 0.5q1.0625 0.5 1.625 1.53125l0.34375 0q0.609375 -1.0625 1.734375 -1.546875q1.140625 -0.484375 2.34375 -0.484375zm21.32367 0.265625l0 13.828125l-2.890625 0l-0.515625 -1.765625l-0.203125 0q-0.4375 0.703125 -1.109375 1.15625q-0.671875 0.4375 -1.46875 0.640625q-0.796875 0.21875 -1.671875 0.21875q-1.484375 0 -2.59375 -0.515625q-1.09375 -0.53125 -1.703125 -1.640625q-0.609375 -1.125 -0.609375 -2.90625l0 -9.015625l3.765625 0l0 8.078125q0 1.484375 0.53125 2.234375q0.53125 0.75 1.703125 0.75q1.140625 0 1.796875 -0.515625q0.65625 -0.53125 0.921875 -1.546875q0.265625 -1.015625 0.265625 -2.5l0 -6.5l3.78125 0zm7.7244263 13.828125l-3.765625 0l0 -19.25l3.765625 0l0 19.25zm9.776428 -2.765625q0.625 0 1.203125 -0.109375q0.59375 -0.125 1.171875 -0.3125l0 2.796875q-0.59375 0.28125 -1.5 0.453125q-0.890625 0.1875 -1.953125 0.1875q-1.234375 0 -2.21875 -0.40625q-0.984375 -0.40625 -1.546875 -1.390625q-0.5625 -1.0 -0.5625 -2.78125l0 -6.671875l-1.8125 0l0 -1.59375l2.078125 -1.25l1.09375 -2.921875l2.40625 0l0 2.9375l3.875 0l0 2.828125l-3.875 0l0 6.671875q0 0.796875 0.453125 1.1875q0.453125 0.375 1.1875 0.375zm8.947632 -11.0625l0 13.828125l-3.765625 0l0 -13.828125l3.765625 0zm-1.875 -5.421875q0.84375 0 1.4375 0.390625q0.609375 0.390625 0.609375 1.453125q0 1.0625 -0.609375 1.46875q-0.59375 0.390625 -1.4375 0.390625q-0.859375 0 -1.46875 -0.390625q-0.59375 -0.40625 -0.59375 -1.46875q0 -1.0625 0.59375 -1.453125q0.609375 -0.390625 1.46875 -0.390625zm13.526428 5.15625q2.34375 0 3.78125 1.828125q1.4375 1.8125 1.4375 5.328125q0 2.34375 -0.6875 3.953125q-0.671875 1.59375 -1.875 2.421875q-1.203125 0.8125 -2.75 0.8125q-1.0 0 -1.71875 -0.25q-0.71875 -0.265625 -1.234375 -0.65625q-0.5 -0.40625 -0.875 -0.859375l-0.203125 0q0.109375 0.484375 0.15625 1.015625q0.046875 0.515625 0.046875 1.0l0 5.578125l-3.765625 0l0 -19.90625l3.0625 0l0.53125 1.796875l0.171875 0q0.375 -0.5625 0.90625 -1.03125q0.53125 -0.46875 1.28125 -0.75q0.75 -0.28125 1.734375 -0.28125zm-1.21875 3.03125q-0.984375 0 -1.5625 0.40625q-0.578125 0.40625 -0.84375 1.21875q-0.265625 0.8125 -0.296875 2.0625l0 0.40625q0 1.34375 0.25 2.28125q0.265625 0.921875 0.859375 1.40625q0.59375 0.46875 1.65625 0.46875q0.859375 0 1.40625 -0.46875q0.5625 -0.484375 0.84375 -1.421875q0.28125 -0.9375 0.28125 -2.28125q0 -2.03125 -0.640625 -3.046875q-0.625 -1.03125 -1.953125 -1.03125zm13.324829 11.0625l-3.765625 0l0 -19.25l3.765625 0l0 19.25zm9.666992 -14.09375q1.90625 0 3.296875 0.75q1.390625 0.734375 2.140625 2.140625q0.75 1.390625 0.75 3.40625l0 1.828125l-8.921875 0q0.0625 1.59375 0.953125 2.5q0.90625 0.90625 2.5 0.90625q1.328125 0 2.421875 -0.265625q1.109375 -0.28125 2.265625 -0.8125l0 2.90625q-1.015625 0.515625 -2.140625 0.75q-1.125 0.234375 -2.71875 0.234375q-2.078125 0 -3.6875 -0.765625q-1.59375 -0.765625 -2.5 -2.328125q-0.90625 -1.578125 -0.90625 -3.96875q0 -2.421875 0.8125 -4.03125q0.828125 -1.625 2.296875 -2.4375q1.46875 -0.8125 3.4375 -0.8125zm0.015625 2.6875q-1.09375 0 -1.828125 0.703125q-0.71875 0.703125 -0.828125 2.21875l5.296875 0q-0.015625 -0.84375 -0.3125 -1.5q-0.28125 -0.65625 -0.859375 -1.03125q-0.578125 -0.390625 -1.46875 -0.390625zm21.637512 8.640625q0.625 0 1.203125 -0.109375q0.59375 -0.125 1.171875 -0.3125l0 2.796875q-0.59375 0.28125 -1.5 0.453125q-0.890625 0.1875 -1.953125 0.1875q-1.234375 0 -2.21875 -0.40625q-0.984375 -0.40625 -1.546875 -1.390625q-0.5625 -1.0 -0.5625 -2.78125l0 -6.671875l-1.8125 0l0 -1.59375l2.078125 -1.25l1.09375 -2.921875l2.40625 0l0 2.9375l3.875 0l0 2.828125l-3.875 0l0 6.671875q0 0.796875 0.453125 1.1875q0.453125 0.375 1.1875 0.375zm10.838257 -11.34375q2.78125 0 4.265625 1.21875q1.484375 1.203125 1.484375 3.671875l0 9.21875l-2.625 0l-0.734375 -1.875l-0.09375 0q-0.59375 0.734375 -1.21875 1.203125q-0.625 0.46875 -1.421875 0.6875q-0.796875 0.234375 -1.953125 0.234375q-1.21875 0 -2.203125 -0.46875q-0.96875 -0.46875 -1.53125 -1.4375q-0.546875 -0.984375 -0.546875 -2.46875q0 -2.203125 1.546875 -3.25q1.546875 -1.046875 4.640625 -1.15625l2.390625 -0.078125l0 -0.609375q0 -1.078125 -0.5625 -1.578125q-0.5625 -0.515625 -1.578125 -0.515625q-1.0 0 -1.96875 0.28125q-0.96875 0.28125 -1.9375 0.71875l-1.25 -2.546875q1.109375 -0.578125 2.46875 -0.90625q1.375 -0.34375 2.828125 -0.34375zm2.0 7.703125l-1.453125 0.046875q-1.828125 0.046875 -2.546875 0.65625q-0.703125 0.609375 -0.703125 1.59375q0 0.875 0.5 1.234375q0.515625 0.359375 1.328125 0.359375q1.21875 0 2.046875 -0.703125q0.828125 -0.71875 0.828125 -2.046875l0 -1.140625zm17.282654 2.296875q0 1.40625 -0.671875 2.390625q-0.65625 0.96875 -1.96875 1.46875q-1.296875 0.5 -3.265625 0.5q-1.4375 0 -2.46875 -0.1875q-1.03125 -0.1875 -2.09375 -0.625l0 -3.109375q1.125 0.5 2.421875 0.828125q1.296875 0.328125 2.265625 0.328125q1.109375 0 1.578125 -0.328125q0.484375 -0.328125 0.484375 -0.859375q0 -0.34375 -0.203125 -0.609375q-0.1875 -0.28125 -0.8125 -0.640625q-0.625 -0.359375 -1.984375 -0.921875q-1.296875 -0.546875 -2.140625 -1.09375q-0.828125 -0.5625 -1.234375 -1.3125q-0.390625 -0.765625 -0.390625 -1.953125q0 -1.90625 1.484375 -2.875q1.5 -0.984375 3.984375 -0.984375q1.296875 0 2.453125 0.265625q1.171875 0.265625 2.421875 0.828125l-1.140625 2.71875q-1.03125 -0.4375 -1.9375 -0.71875q-0.90625 -0.296875 -1.859375 -0.296875q-0.828125 0 -1.25 0.234375q-0.40625 0.21875 -0.40625 0.671875q0 0.34375 0.203125 0.609375q0.21875 0.25 0.84375 0.5625q0.625 0.3125 1.84375 0.8125q1.171875 0.484375 2.03125 1.015625q0.875 0.515625 1.34375 1.296875q0.46875 0.765625 0.46875 1.984375zm6.7148438 -15.140625l0 8.609375q0 0.78125 -0.0625 1.5625q-0.0625 0.78125 -0.140625 1.5625l0.0625 0q0.375 -0.546875 0.78125 -1.078125q0.40625 -0.53125 0.859375 -1.03125l3.875 -4.203125l4.25 0l-5.5 6.0l5.828125 7.828125l-4.34375 0l-3.984375 -5.609375l-1.625 1.3125l0 4.296875l-3.765625 0l0 -19.25l3.765625 0zm21.58142 15.140625q0 1.40625 -0.671875 2.390625q-0.65625 0.96875 -1.96875 1.46875q-1.296875 0.5 -3.265625 0.5q-1.4375 0 -2.46875 -0.1875q-1.03125 -0.1875 -2.09375 -0.625l0 -3.109375q1.125 0.5 2.421875 0.828125q1.296875 0.328125 2.265625 0.328125q1.109375 0 1.578125 -0.328125q0.484375 -0.328125 0.484375 -0.859375q0 -0.34375 -0.203125 -0.609375q-0.1875 -0.28125 -0.8125 -0.640625q-0.625 -0.359375 -1.984375 -0.921875q-1.296875 -0.546875 -2.140625 -1.09375q-0.828125 -0.5625 -1.234375 -1.3125q-0.390625 -0.765625 -0.390625 -1.953125q0 -1.90625 1.484375 -2.875q1.5 -0.984375 3.984375 -0.984375q1.296875 0 2.453125 0.265625q1.171875 0.265625 2.421875 0.828125l-1.140625 2.71875q-1.03125 -0.4375 -1.9375 -0.71875q-0.90625 -0.296875 -1.859375 -0.296875q-0.828125 0 -1.25 0.234375q-0.40625 0.21875 -0.40625 0.671875q0 0.34375 0.203125 0.609375q0.21875 0.25 0.84375 0.5625q0.625 0.3125 1.84375 0.8125q1.171875 0.484375 2.03125 1.015625q0.875 0.515625 1.34375 1.296875q0.46875 0.765625 0.46875 1.984375z" fill-rule="nonzero"/><path fill="#000000" fill-opacity="0.0" d="m189.04462 16.829397l0 302.86612" fill-rule="evenodd"/><path stroke="#666666" stroke-width="3.0" stroke-linejoin="round" stroke-linecap="butt" stroke-dasharray="12.0,9.0" d="m189.04462 16.829397l0 302.86612" fill-rule="evenodd"/><path fill="#c9daf8" d="m543.9461 143.1272l0 0c0 -12.541641 10.21637 -22.708664 22.818909 -22.708664l0 0c6.051941 0 11.856018 2.392517 16.135437 6.6512146c4.279358 4.2586975 6.6834717 10.034729 6.6834717 16.05745l0 0c0 12.541641 -10.21637 22.708664 -22.818909 22.708664l0 0c-12.602539 0 -22.818909 -10.167023 -22.818909 -22.708664z" fill-rule="evenodd"/><path stroke="#434343" stroke-width="3.0" stroke-linejoin="round" stroke-linecap="butt" d="m543.9461 143.1272l0 0c0 -12.541641 10.21637 -22.708664 22.818909 -22.708664l0 0c6.051941 0 11.856018 2.392517 16.135437 6.6512146c4.279358 4.2586975 6.6834717 10.034729 6.6834717 16.05745l0 0c0 12.541641 -10.21637 22.708664 -22.818909 22.708664l0 0c-12.602539 0 -22.818909 -10.167023 -22.818909 -22.708664z" fill-rule="evenodd"/><path fill="#fff2cc" d="m403.75385 198.92247l0 0c0 -12.541641 10.21637 -22.708664 22.818909 -22.708664l0 0c6.051941 0 11.856018 2.392517 16.135406 6.6512146c4.279358 4.2586975 6.683502 10.034744 6.683502 16.05745l0 0c0 12.541641 -10.21637 22.708664 -22.818909 22.708664l0 0c-12.602539 0 -22.818909 -10.167023 -22.818909 -22.708664z" fill-rule="evenodd"/><path stroke="#434343" stroke-width="3.0" stroke-linejoin="round" stroke-linecap="butt" d="m403.75385 198.92247l0 0c0 -12.541641 10.21637 -22.708664 22.818909 -22.708664l0 0c6.051941 0 11.856018 2.392517 16.135406 6.6512146c4.279358 4.2586975 6.683502 10.034744 6.683502 16.05745l0 0c0 12.541641 -10.21637 22.708664 -22.818909 22.708664l0 0c-12.602539 0 -22.818909 -10.167023 -22.818909 -22.708664z" fill-rule="evenodd"/><path fill="#f4cccc" d="m449.50082 143.1272l0 0c0 -12.541641 10.21637 -22.708664 22.818909 -22.708664l0 0c6.051941 0 11.856018 2.392517 16.135406 6.6512146c4.279358 4.2586975 6.6834717 10.034729 6.6834717 16.05745l0 0c0 12.541641 -10.216339 22.708664 -22.818878 22.708664l0 0c-12.602539 0 -22.818909 -10.167023 -22.818909 -22.708664z" fill-rule="evenodd"/><path stroke="#434343" stroke-width="3.0" stroke-linejoin="round" stroke-linecap="butt" d="m449.50082 143.1272l0 0c0 -12.541641 10.21637 -22.708664 22.818909 -22.708664l0 0c6.051941 0 11.856018 2.392517 16.135406 6.6512146c4.279358 4.2586975 6.6834717 10.034729 6.6834717 16.05745l0 0c0 12.541641 -10.216339 22.708664 -22.818878 22.708664l0 0c-12.602539 0 -22.818909 -10.167023 -22.818909 -22.708664z" fill-rule="evenodd"/><path fill="#fff2cc" d="m533.3322 217.04318l0 0c-9.907715 7.6875 -24.211792 5.820938 -31.949432 -4.1691437c-7.7376404 -9.990067 -5.978882 -24.3208 3.9282837 -32.009003l14.0112 18.088593z" fill-rule="evenodd"/><path stroke="#434343" stroke-width="3.0" stroke-linejoin="round" stroke-linecap="butt" d="m533.3322 217.04318l0 0c-9.907715 7.6875 -24.211792 5.820938 -31.949432 -4.1691437c-7.7376404 -9.990067 -5.978882 -24.3208 3.9282837 -32.009003l14.0112 18.088593z" fill-rule="evenodd"/><path fill="#f4cccc" d="m505.31357 180.8507l0 0c9.907745 -7.6875 24.211823 -5.820923 31.949432 4.1691437c7.73761 9.990067 5.978882 24.320816 -3.9282837 32.009003l-14.01123 -18.088577z" fill-rule="evenodd"/><path stroke="#434343" stroke-width="3.0" stroke-linejoin="round" stroke-linecap="butt" d="m505.31357 180.8507l0 0c9.907745 -7.6875 24.211823 -5.820923 31.949432 4.1691437c7.73761 9.990067 5.978882 24.320816 -3.9282837 32.009003l-14.01123 -18.088577z" fill-rule="evenodd"/><path fill="#fff2cc" d="m630.47186 185.3749l0 0c7.6378174 9.9396515 5.7020264 24.246414 -4.3237915 31.95543c-10.025818 7.70903 -24.345337 5.9012146 -31.983887 -4.037903l18.153381 -13.959396z" fill-rule="evenodd"/><path stroke="#434343" stroke-width="3.0" stroke-linejoin="round" stroke-linecap="butt" d="m630.47186 185.3749l0 0c7.6378174 9.9396515 5.7020264 24.246414 -4.3237915 31.95543c-10.025818 7.70903 -24.345337 5.9012146 -31.983887 -4.037903l18.153381 -13.959396z" fill-rule="evenodd"/><path fill="#f4cccc" d="m594.1499 213.28989l0 0c-7.6378784 -9.939667 -5.7020874 -24.246414 4.3237915 -31.95543c10.025818 -7.70903 24.345276 -5.90123 31.983826 4.0378876l-18.15332 13.959396z" fill-rule="evenodd"/><path stroke="#434343" stroke-width="3.0" stroke-linejoin="round" stroke-linecap="butt" d="m594.1499 213.28989l0 0c-7.6378784 -9.939667 -5.7020874 -24.246414 4.3237915 -31.95543c10.025818 -7.70903 24.345276 -5.90123 31.983826 4.0378876l-18.15332 13.959396z" fill-rule="evenodd"/><path fill="#c9daf8" d="m598.36554 181.18475l0 0c9.943176 -7.644928 24.24701 -5.7177734 31.948853 4.304489c7.7019043 10.022263 5.885437 24.34459 -4.057251 31.990234l-13.946472 -18.146881z" fill-rule="evenodd"/><path stroke="#434343" stroke-width="3.0" stroke-linejoin="round" stroke-linecap="butt" d="m598.36554 181.18475l0 0c9.943176 -7.644928 24.24701 -5.7177734 31.948853 4.304489c7.7019043 10.022263 5.885437 24.34459 -4.057251 31.990234l-13.946472 -18.146881z" fill-rule="evenodd"/><path fill="#000000" fill-opacity="0.0" d="m224.91339 64.12861l129.79526 0l0 50.078743l-129.79526 0z" fill-rule="evenodd"/><path fill="#000000" d="m253.44432 79.37048q3.4999847 0 5.1093597 1.375q1.609375 1.359375 1.609375 3.90625q0 1.140625 -0.375 2.1875q-0.375 1.03125 -1.21875 1.8125q-0.84375 0.78125 -2.21875 1.234375q-1.3593597 0.453125 -3.3281097 0.453125l-2.203125 0l0 7.109375l-2.109375 0l0 -18.078125l4.734375 0zm-0.203125 1.796875l-2.421875 0l0 7.359375l1.96875 0q1.734375 0 2.890625 -0.359375q1.1562347 -0.375 1.7343597 -1.203125q0.578125 -0.84375 0.578125 -2.234375q0 -1.796875 -1.15625 -2.671875q-1.1406097 -0.890625 -3.5937347 -0.890625zm15.47081 2.5q2.421875 0 3.59375 1.09375q1.1875 1.09375 1.1875 3.46875l0 9.21875l-1.5 0l-0.40625 -2.0l-0.09375 0q-0.5625 0.734375 -1.1875 1.234375q-0.609375 0.5 -1.421875 0.765625q-0.8125 0.25 -1.984375 0.25q-1.234375 0 -2.203125 -0.4375q-0.953125 -0.4375 -1.515625 -1.3125q-0.546875 -0.875 -0.546875 -2.21875q0 -2.03125 1.609375 -3.109375q1.609375 -1.09375 4.90625 -1.203125l2.328125 -0.09375l0 -0.828125q0 -1.75 -0.75 -2.453125q-0.75 -0.71875 -2.125 -0.71875q-1.0625 0 -2.03125 0.3125q-0.96875 0.3125 -1.828125 0.734375l-0.625 -1.5625q0.90625 -0.46875 2.09375 -0.796875q1.1875 -0.34375 2.5 -0.34375zm2.75 7.109375l-2.0625 0.078125q-2.546875 0.09375 -3.59375 0.828125q-1.03125 0.734375 -1.03125 2.0625q0 1.171875 0.703125 1.734375q0.71875 0.546875 1.875 0.546875q1.8125 0 2.953125 -1.0q1.15625 -1.0 1.15625 -3.0l0 -1.25zm12.417694 -7.125q0.40625 0 0.84375 0.046875q0.453125 0.03125 0.796875 0.109375l-0.265625 1.90625q-0.328125 -0.09375 -0.734375 -0.140625q-0.40625 -0.046875 -0.765625 -0.046875q-0.8125 0 -1.546875 0.328125q-0.71875 0.328125 -1.265625 0.9375q-0.546875 0.609375 -0.859375 1.46875q-0.296875 0.859375 -0.296875 1.921875l0 7.265625l-2.0625 0l0 -13.546875l1.703125 0l0.21875 2.484375l0.09375 0q0.40625 -0.75 1.0 -1.375q0.59375 -0.625 1.375 -0.984375q0.796875 -0.375 1.765625 -0.375zm9.257629 0.015625q2.421875 0 3.59375 1.09375q1.1875 1.09375 1.1875 3.46875l0 9.21875l-1.5 0l-0.40625 -2.0l-0.09375 0q-0.5625 0.734375 -1.1875 1.234375q-0.609375 0.5 -1.421875 0.765625q-0.8125 0.25 -1.984375 0.25q-1.234375 0 -2.203125 -0.4375q-0.953125 -0.4375 -1.515625 -1.3125q-0.546875 -0.875 -0.546875 -2.21875q0 -2.03125 1.609375 -3.109375q1.609375 -1.09375 4.90625 -1.203125l2.328125 -0.09375l0 -0.828125q0 -1.75 -0.75 -2.453125q-0.75 -0.71875 -2.125 -0.71875q-1.0625 0 -2.03125 0.3125q-0.96875 0.3125 -1.828125 0.734375l-0.625 -1.5625q0.90625 -0.46875 2.09375 -0.796875q1.1875 -0.34375 2.5 -0.34375zm2.75 7.109375l-2.0625 0.078125q-2.546875 0.09375 -3.59375 0.828125q-1.03125 0.734375 -1.03125 2.0625q0 1.171875 0.703125 1.734375q0.71875 0.546875 1.875 0.546875q1.8125 0 2.953125 -1.0q1.15625 -1.0 1.15625 -3.0l0 -1.25zm8.323944 6.671875l-2.0625 0l0 -19.25l2.0625 0l0 19.25zm6.39386 0l-2.0625 0l0 -19.25l2.0625 0l0 19.25zm9.55014 -13.796875q1.71875 0 2.953125 0.765625q1.25 0.765625 1.90625 2.140625q0.65625 1.375 0.65625 3.21875l0 1.28125l-9.375 0q0.046875 2.390625 1.1875 3.640625q1.15625 1.234375 3.25 1.234375q1.28125 0 2.265625 -0.234375q1.0 -0.234375 2.0625 -0.6875l0 1.8125q-1.03125 0.453125 -2.046875 0.65625q-1.0 0.21875 -2.375 0.21875q-1.953125 0 -3.40625 -0.796875q-1.453125 -0.796875 -2.265625 -2.34375q-0.796875 -1.546875 -0.796875 -3.78125q0 -2.203125 0.734375 -3.796875q0.734375 -1.609375 2.078125 -2.46875q1.34375 -0.859375 3.171875 -0.859375zm-0.03125 1.671875q-1.640625 0 -2.625 1.078125q-0.96875 1.078125 -1.15625 3.015625l7.171875 0q-0.015625 -1.21875 -0.390625 -2.140625q-0.359375 -0.921875 -1.109375 -1.4375q-0.734375 -0.515625 -1.890625 -0.515625zm11.097321 12.125l-2.0625 0l0 -19.25l2.0625 0l0 19.25z" fill-rule="nonzero"/><path fill="#000000" fill-opacity="0.0" d="m701.7047 64.12861l99.71655 0l0 50.078743l-99.71655 0z" fill-rule="evenodd"/><path fill="#000000" d="m724.92554 102.21423q-0.609375 0 -1.078125 -0.09375q-0.46875 -0.078125 -0.8125 -0.234375l0 -1.796875q0.40625 0.125 0.859375 0.1875q0.453125 0.078125 0.984375 0.078125q0.6875 0 1.265625 -0.28125q0.59375 -0.265625 0.9375 -0.921875q0.34375 -0.65625 0.34375 -1.796875l0 -17.984375l2.125 0l0 17.8125q0 1.703125 -0.578125 2.8125q-0.5625 1.109375 -1.59375 1.65625q-1.03125 0.5625 -2.453125 0.5625zm20.786377 -11.5625q0 1.671875 -0.4375 2.984375q-0.421875 1.296875 -1.234375 2.203125q-0.8125 0.90625 -1.96875 1.390625q-1.15625 0.46875 -2.625 0.46875q-1.359375 0 -2.5 -0.46875q-1.125 -0.484375 -1.953125 -1.390625q-0.8125 -0.90625 -1.265625 -2.203125q-0.453125 -1.3125 -0.453125 -2.984375q0 -2.234375 0.75 -3.796875q0.765625 -1.5625 2.15625 -2.375q1.40625 -0.828125 3.359375 -0.828125q1.84375 0 3.234375 0.828125q1.40625 0.828125 2.171875 2.390625q0.765625 1.5625 0.765625 3.78125zm-10.3125 0q0 1.625 0.4375 2.828125q0.4375 1.203125 1.328125 1.859375q0.90625 0.65625 2.328125 0.65625q1.421875 0 2.328125 -0.65625q0.90625 -0.65625 1.328125 -1.859375q0.4375 -1.203125 0.4375 -2.828125q0 -1.625 -0.4375 -2.796875q-0.421875 -1.1875 -1.328125 -1.828125q-0.90625 -0.65625 -2.328125 -0.65625q-2.125 0 -3.109375 1.40625q-0.984375 1.390625 -0.984375 3.875zm15.92395 -6.75l0 13.546875l-2.046875 0l0 -13.546875l2.046875 0zm-1.0 -5.078125q0.5 0 0.859375 0.328125q0.375 0.328125 0.375 1.015625q0 0.6875 -0.375 1.03125q-0.359375 0.328125 -0.859375 0.328125q-0.53125 0 -0.890625 -0.328125q-0.34375 -0.34375 -0.34375 -1.03125q0 -0.6875 0.34375 -1.015625q0.359375 -0.328125 0.890625 -0.328125zm11.753235 4.828125q2.421875 0 3.65625 1.1875q1.234375 1.171875 1.234375 3.78125l0 8.828125l-2.03125 0l0 -8.6875q0 -1.703125 -0.78125 -2.546875q-0.765625 -0.84375 -2.359375 -0.84375q-2.25 0 -3.171875 1.28125q-0.90625 1.28125 -0.90625 3.703125l0 7.09375l-2.046875 0l0 -13.546875l1.65625 0l0.296875 1.953125l0.109375 0q0.4375 -0.71875 1.109375 -1.203125q0.671875 -0.5 1.5 -0.75q0.828125 -0.25 1.734375 -0.25zm13.502014 12.359375q0.5 0 1.03125 -0.078125q0.53125 -0.09375 0.875 -0.21875l0 1.59375q-0.359375 0.171875 -1.0 0.28125q-0.640625 0.109375 -1.25 0.109375q-1.078125 0 -1.953125 -0.375q-0.875 -0.375 -1.40625 -1.28125q-0.515625 -0.90625 -0.515625 -2.5l0 -8.046875l-1.9375 0l0 -1.0l1.953125 -0.796875l0.8125 -2.953125l1.234375 0l0 3.15625l3.96875 0l0 1.59375l-3.96875 0l0 7.984375q0 1.265625 0.578125 1.90625q0.59375 0.625 1.578125 0.625z" fill-rule="nonzero"/><path fill="#000000" fill-opacity="0.0" d="m429.88968 64.12861l178.86612 0l0 50.078743l-178.86612 0z" fill-rule="evenodd"/><path fill="#000000" d="m469.60184 92.63611q0 1.609375 -0.796875 2.75q-0.796875 1.125 -2.234375 1.71875q-1.421875 0.59375 -3.375 0.59375q-1.015625 0 -1.9375 -0.109375q-0.921875 -0.09375 -1.6875 -0.28125q-0.765625 -0.1875 -1.34375 -0.453125l0 -2.015625q0.921875 0.390625 2.25 0.71875q1.34375 0.3125 2.8125 0.3125q1.359375 0 2.296875 -0.359375q0.9375 -0.359375 1.421875 -1.046875q0.5 -0.6875 0.5 -1.65625q0 -0.921875 -0.421875 -1.546875q-0.40625 -0.625 -1.359375 -1.140625q-0.9375 -0.515625 -2.5625 -1.09375q-1.15625 -0.40625 -2.03125 -0.890625q-0.875 -0.5 -1.46875 -1.109375q-0.59375 -0.625 -0.90625 -1.4375q-0.296875 -0.8125 -0.296875 -1.875q0 -1.4375 0.734375 -2.46875q0.734375 -1.03125 2.03125 -1.578125q1.3125 -0.5625 3.015625 -0.5625q1.4375 0 2.671875 0.28125q1.234375 0.265625 2.265625 0.71875l-0.65625 1.8125q-0.984375 -0.40625 -2.078125 -0.671875q-1.09375 -0.28125 -2.25 -0.28125q-1.171875 0 -1.96875 0.34375q-0.796875 0.328125 -1.21875 0.953125q-0.421875 0.625 -0.421875 1.46875q0 0.953125 0.40625 1.59375q0.40625 0.625 1.28125 1.109375q0.890625 0.484375 2.34375 1.015625q1.59375 0.59375 2.703125 1.25q1.125 0.640625 1.703125 1.578125q0.578125 0.921875 0.578125 2.359375zm8.607178 -8.984375q1.71875 0 2.953125 0.765625q1.25 0.765625 1.90625 2.140625q0.65625 1.375 0.65625 3.21875l0 1.28125l-9.375 0q0.046875 2.390625 1.1875 3.640625q1.15625 1.234375 3.25 1.234375q1.28125 0 2.265625 -0.234375q1.0 -0.234375 2.0625 -0.6875l0 1.8125q-1.03125 0.453125 -2.046875 0.65625q-1.0 0.21875 -2.375 0.21875q-1.953125 0 -3.40625 -0.796875q-1.453125 -0.796875 -2.265625 -2.34375q-0.796875 -1.546875 -0.796875 -3.78125q0 -2.203125 0.734375 -3.796875q0.734375 -1.609375 2.078125 -2.46875q1.34375 -0.859375 3.171875 -0.859375zm-0.03125 1.671875q-1.640625 0 -2.625 1.078125q-0.96875 1.078125 -1.15625 3.015625l7.171875 0q-0.015625 -1.21875 -0.390625 -2.140625q-0.359375 -0.921875 -1.109375 -1.4375q-0.734375 -0.515625 -1.890625 -0.515625zm18.112946 18.1875l0 -5.8125q0 -0.484375 0.015625 -1.109375q0.03125 -0.640625 0.09375 -1.09375l-0.125 0q-0.578125 0.9375 -1.625 1.578125q-1.046875 0.625 -2.703125 0.625q-2.484375 0 -4.0 -1.75q-1.515625 -1.765625 -1.515625 -5.25q0 -2.296875 0.6875 -3.859375q0.703125 -1.578125 1.96875 -2.375q1.265625 -0.8125 2.96875 -0.8125q1.609375 0 2.640625 0.640625q1.03125 0.625 1.609375 1.546875l0.09375 0l0.3125 -1.9375l1.640625 0l0 19.609375l-2.0625 0zm-3.96875 -7.515625q1.4375 0 2.296875 -0.53125q0.875 -0.546875 1.265625 -1.640625q0.40625 -1.09375 0.4375 -2.703125l0 -0.4375q0 -2.625 -0.890625 -3.96875q-0.890625 -1.359375 -3.109375 -1.359375q-1.90625 0 -2.828125 1.453125q-0.921875 1.453125 -0.921875 3.9375q0 2.484375 0.921875 3.875q0.921875 1.375 2.828125 1.375zm21.57428 -12.09375l0 13.546875l-1.6875 0l-0.29684448 -1.90625l-0.109375 0q-0.421875 0.703125 -1.09375 1.1875q-0.65625 0.484375 -1.5 0.71875q-0.828125 0.25 -1.765625 0.25q-1.609375 0 -2.703125 -0.515625q-1.09375 -0.53125 -1.640625 -1.609375q-0.546875 -1.09375 -0.546875 -2.796875l0 -8.875l2.078125 0l0 8.71875q0 1.703125 0.765625 2.546875q0.765625 0.828125 2.34375 0.828125q1.5 0 2.390625 -0.5625q0.90625 -0.578125 1.296875 -1.6875q0.40625 -1.109375 0.40625 -2.71875l0 -7.125l2.0624695 0zm9.564514 -0.25q1.71875 0 2.953125 0.765625q1.25 0.765625 1.90625 2.140625q0.65625 1.375 0.65625 3.21875l0 1.28125l-9.375 0q0.046875 2.390625 1.1875 3.640625q1.15625 1.234375 3.25 1.234375q1.28125 0 2.265625 -0.234375q1.0 -0.234375 2.0625 -0.6875l0 1.8125q-1.03125 0.453125 -2.046875 0.65625q-1.0 0.21875 -2.375 0.21875q-1.953125 0 -3.40625 -0.796875q-1.453125 -0.796875 -2.265625 -2.34375q-0.796875 -1.546875 -0.796875 -3.78125q0 -2.203125 0.734375 -3.796875q0.734375 -1.609375 2.078125 -2.46875q1.34375 -0.859375 3.171875 -0.859375zm-0.03125 1.671875q-1.640625 0 -2.625 1.078125q-0.96875 1.078125 -1.15625 3.015625l7.171875 0q-0.015625 -1.21875 -0.390625 -2.140625q-0.359375 -0.921875 -1.109375 -1.4375q-0.734375 -0.515625 -1.890625 -0.515625zm15.441101 -1.671875q2.421875 0 3.65625 1.1875q1.234375 1.171875 1.234375 3.78125l0 8.828125l-2.03125 0l0 -8.6875q0 -1.703125 -0.78125 -2.546875q-0.765625 -0.84375 -2.359375 -0.84375q-2.25 0 -3.171875 1.28125q-0.90625 1.28125 -0.90625 3.703125l0 7.09375l-2.046875 0l0 -13.546875l1.65625 0l0.296875 1.953125l0.109375 0q0.4375 -0.71875 1.109375 -1.203125q0.671875 -0.5 1.5 -0.75q0.828125 -0.25 1.734375 -0.25zm13.502014 12.359375q0.5 0 1.03125 -0.078125q0.53125 -0.09375 0.875 -0.21875l0 1.59375q-0.359375 0.171875 -1.0 0.28125q-0.640625 0.109375 -1.25 0.109375q-1.078125 0 -1.953125 -0.375q-0.875 -0.375 -1.40625 -1.28125q-0.515625 -0.90625 -0.515625 -2.5l0 -8.046875l-1.9375 0l0 -1.0l1.953125 -0.796875l0.8125 -2.953125l1.234375 0l0 3.15625l3.96875 0l0 1.59375l-3.96875 0l0 7.984375q0 1.265625 0.578125 1.90625q0.59375 0.625 1.578125 0.625zm6.699951 -12.109375l0 13.546875l-2.046875 0l0 -13.546875l2.046875 0zm-1.0 -5.078125q0.5 0 0.859375 0.328125q0.375 0.328125 0.375 1.015625q0 0.6875 -0.375 1.03125q-0.359375 0.328125 -0.859375 0.328125q-0.53125 0 -0.890625 -0.328125q-0.34375 -0.34375 -0.34375 -1.03125q0 -0.6875 0.34375 -1.015625q0.359375 -0.328125 0.890625 -0.328125zm10.409546 4.84375q2.421875 0 3.59375 1.09375q1.1875 1.09375 1.1875 3.46875l0 9.21875l-1.5 0l-0.40625 -2.0l-0.09375 0q-0.5625 0.734375 -1.1875 1.234375q-0.609375 0.5 -1.421875 0.765625q-0.8125 0.25 -1.984375 0.25q-1.234375 0 -2.203125 -0.4375q-0.953125 -0.4375 -1.515625 -1.3125q-0.546875 -0.875 -0.546875 -2.21875q0 -2.03125 1.609375 -3.109375q1.609375 -1.09375 4.90625 -1.203125l2.328125 -0.09375l0 -0.828125q0 -1.75 -0.75 -2.453125q-0.75 -0.71875 -2.125 -0.71875q-1.0625 0 -2.03125 0.3125q-0.96875 0.3125 -1.828125 0.734375l-0.625 -1.5625q0.90625 -0.46875 2.09375 -0.796875q1.1875 -0.34375 2.5 -0.34375zm2.75 7.109375l-2.0625 0.078125q-2.546875 0.09375 -3.59375 0.828125q-1.03125 0.734375 -1.03125 2.0625q0 1.171875 0.703125 1.734375q0.71875 0.546875 1.875 0.546875q1.8125 0 2.953125 -1.0q1.15625 -1.0 1.15625 -3.0l0 -1.25zm8.323914 6.671875l-2.0625 0l0 -19.25l2.0625 0l0 19.25z" fill-rule="nonzero"/><path fill="#fff2cc" d="m682.99927 198.92247l0 0c0 -12.541641 10.21637 -22.708664 22.818909 -22.708664l0 0c6.051941 0 11.856018 2.392517 16.135376 6.6512146c4.279358 4.2586975 6.6835327 10.034744 6.6835327 16.05745l0 0c0 12.541641 -10.21637 22.708664 -22.818909 22.708664l0 0c-12.602539 0 -22.818909 -10.167023 -22.818909 -22.708664z" fill-rule="evenodd"/><path stroke="#434343" stroke-width="3.0" stroke-linejoin="round" stroke-linecap="butt" d="m682.99927 198.92247l0 0c0 -12.541641 10.21637 -22.708664 22.818909 -22.708664l0 0c6.051941 0 11.856018 2.392517 16.135376 6.6512146c4.279358 4.2586975 6.6835327 10.034744 6.6835327 16.05745l0 0c0 12.541641 -10.21637 22.708664 -22.818909 22.708664l0 0c-12.602539 0 -22.818909 -10.167023 -22.818909 -22.708664z" fill-rule="evenodd"/><path fill="#d9d2e9" d="m728.7462 143.1272l0 0c0 -12.541641 10.21637 -22.708664 22.818909 -22.708664l0 0c6.051941 0 11.856018 2.392517 16.135437 6.6512146c4.279358 4.2586975 6.6834717 10.034729 6.6834717 16.05745l0 0c0 12.541641 -10.21637 22.708664 -22.818909 22.708664l0 0c-12.602539 0 -22.818909 -10.167023 -22.818909 -22.708664z" fill-rule="evenodd"/><path stroke="#434343" stroke-width="3.0" stroke-linejoin="round" stroke-linecap="butt" d="m728.7462 143.1272l0 0c0 -12.541641 10.21637 -22.708664 22.818909 -22.708664l0 0c6.051941 0 11.856018 2.392517 16.135437 6.6512146c4.279358 4.2586975 6.6834717 10.034729 6.6834717 16.05745l0 0c0 12.541641 -10.21637 22.708664 -22.818909 22.708664l0 0c-12.602539 0 -22.818909 -10.167023 -22.818909 -22.708664z" fill-rule="evenodd"/><path fill="#fff2cc" d="m812.57764 217.04318l0 0c-9.907776 7.6875 -24.211792 5.820938 -31.949463 -4.1691437c-7.73761 -9.990067 -5.978882 -24.3208 3.9282837 -32.009003l14.01123 18.088593z" fill-rule="evenodd"/><path stroke="#434343" stroke-width="3.0" stroke-linejoin="round" stroke-linecap="butt" d="m812.57764 217.04318l0 0c-9.907776 7.6875 -24.211792 5.820938 -31.949463 -4.1691437c-7.73761 -9.990067 -5.978882 -24.3208 3.9282837 -32.009003l14.01123 18.088593z" fill-rule="evenodd"/><path fill="#d9d2e9" d="m784.55896 180.8507l0 0c9.907776 -7.6875 24.211792 -5.820923 31.949463 4.1691437c7.73761 9.990067 5.978882 24.320816 -3.9282837 32.009003l-14.01123 -18.088577z" fill-rule="evenodd"/><path stroke="#434343" stroke-width="3.0" stroke-linejoin="round" stroke-linecap="butt" d="m784.55896 180.8507l0 0c9.907776 -7.6875 24.211792 -5.820923 31.949463 4.1691437c7.73761 9.990067 5.978882 24.320816 -3.9282837 32.009003l-14.01123 -18.088577z" fill-rule="evenodd"/><path fill="#fff2cc" d="m218.67513 198.6915l0 0c0 -12.541641 10.216354 -22.708664 22.818893 -22.708664l0 0c6.051941 0 11.856018 2.392517 16.135406 6.6512146c4.279358 4.2586975 6.683502 10.034744 6.683502 16.05745l0 0c0 12.5416565 -10.216385 22.708664 -22.818909 22.708664l0 0c-12.602539 0 -22.818893 -10.167007 -22.818893 -22.708664z" fill-rule="evenodd"/><path stroke="#434343" stroke-width="3.0" stroke-linejoin="round" stroke-linecap="butt" d="m218.67513 198.6915l0 0c0 -12.541641 10.216354 -22.708664 22.818893 -22.708664l0 0c6.051941 0 11.856018 2.392517 16.135406 6.6512146c4.279358 4.2586975 6.683502 10.034744 6.683502 16.05745l0 0c0 12.5416565 -10.216385 22.708664 -22.818909 22.708664l0 0c-12.602539 0 -22.818893 -10.167007 -22.818893 -22.708664z" fill-rule="evenodd"/><path fill="#f4cccc" d="m264.4221 142.89622l0 0c0 -12.541641 10.21637 -22.708664 22.818909 -22.708664l0 0c6.051941 0 11.856018 2.392517 16.135376 6.6512146c4.2793884 4.2586975 6.683502 10.034744 6.683502 16.05745l0 0c0 12.541641 -10.21637 22.708664 -22.818878 22.708664l0 0c-12.602539 0 -22.818909 -10.167023 -22.818909 -22.708664z" fill-rule="evenodd"/><path stroke="#434343" stroke-width="3.0" stroke-linejoin="round" stroke-linecap="butt" d="m264.4221 142.89622l0 0c0 -12.541641 10.21637 -22.708664 22.818909 -22.708664l0 0c6.051941 0 11.856018 2.392517 16.135376 6.6512146c4.2793884 4.2586975 6.683502 10.034744 6.683502 16.05745l0 0c0 12.541641 -10.21637 22.708664 -22.818878 22.708664l0 0c-12.602539 0 -22.818909 -10.167023 -22.818909 -22.708664z" fill-rule="evenodd"/><path fill="#c9daf8" d="m315.47748 213.05826l0 0c-7.8535767 -9.766937 -6.2392883 -24.114563 3.6056519 -32.046738c9.84494 -7.9321747 24.192627 -6.445282 32.046875 3.3210907l-17.825775 14.363449z" fill-rule="evenodd"/><path stroke="#434343" stroke-width="3.0" stroke-linejoin="round" stroke-linecap="butt" d="m315.47748 213.05826l0 0c-7.8535767 -9.766937 -6.2392883 -24.114563 3.6056519 -32.046738c9.84494 -7.9321747 24.192627 -6.445282 32.046875 3.3210907l-17.825775 14.363449z" fill-rule="evenodd"/><path fill="#f4cccc" d="m351.1474 184.32063l0 0c7.853546 9.766937 6.239258 24.114563 -3.6056824 32.046738c-9.84494 7.9321747 -24.192627 6.4452972 -32.046875 -3.3210907l17.825775 -14.363434z" fill-rule="evenodd"/><path stroke="#434343" stroke-width="3.0" stroke-linejoin="round" stroke-linecap="butt" d="m351.1474 184.32063l0 0c7.853546 9.766937 6.239258 24.114563 -3.6056824 32.046738c-9.84494 7.9321747 -24.192627 6.4452972 -32.046875 -3.3210907l17.825775 -14.363434z" fill-rule="evenodd"/><path fill="#fff2cc" d="m347.63837 216.50754l0 0c-9.766937 7.862259 -24.100464 6.25502 -32.01526 -3.58992c-7.9147644 -9.84494 -6.413788 -24.199677 3.3526 -32.062622l14.33194 17.825775z" fill-rule="evenodd"/><path stroke="#434343" stroke-width="3.0" stroke-linejoin="round" stroke-linecap="butt" d="m347.63837 216.50754l0 0c-9.766937 7.862259 -24.100464 6.25502 -32.01526 -3.58992c-7.9147644 -9.84494 -6.413788 -24.199677 3.3526 -32.062622l14.33194 17.825775z" fill-rule="evenodd"/><path fill="#c9daf8" d="m264.1544 254.9458l0 0c0 12.5416565 10.216339 22.708649 22.818878 22.708649l0 0c6.051941 0 11.856018 -2.3924866 16.135406 -6.6512146c4.279358 -4.2586975 6.683502 -10.034729 6.683502 -16.057434l0 0c0 -12.5416565 -10.21637 -22.708664 -22.818909 -22.708664l0 0c-12.602539 0 -22.818878 10.167007 -22.818878 22.708664z" fill-rule="evenodd"/><path stroke="#434343" stroke-width="3.0" stroke-linejoin="round" stroke-linecap="butt" d="m264.1544 254.9458l0 0c0 12.5416565 10.216339 22.708649 22.818878 22.708649l0 0c6.051941 0 11.856018 -2.3924866 16.135406 -6.6512146c4.279358 -4.2586975 6.683502 -10.034729 6.683502 -16.057434l0 0c0 -12.5416565 -10.21637 -22.708664 -22.818909 -22.708664l0 0c-12.602539 0 -22.818878 10.167007 -22.818878 22.708664z" fill-rule="evenodd"/><path fill="#000000" fill-opacity="0.0" d="m342.39896 274.27823l481.48032 0l0 45.417297l-481.48032 0z" fill-rule="evenodd"/><path stroke="#434343" stroke-width="1.0" stroke-linejoin="round" stroke-linecap="butt" stroke-dasharray="8.0,3.0" d="m342.39896 274.27823l481.48032 0l0 45.417297l-481.48032 0z" fill-rule="evenodd"/><path fill="#000000" fill-opacity="0.0" d="m474.70563 296.98688l40.22046 0" fill-rule="evenodd"/><path stroke="#434343" stroke-width="3.0" stroke-linejoin="round" stroke-linecap="butt" d="m474.70563 296.98688l22.220459 0" fill-rule="evenodd"/><path fill="#434343" stroke="#434343" stroke-width="3.0" stroke-linecap="butt" d="m496.9261 301.94208l13.614319 -4.9552l-13.614319 -4.9552z" fill-rule="evenodd"/><path fill="#000000" fill-opacity="0.0" d="m649.5757 296.98688l40.22052 0" fill-rule="evenodd"/><path stroke="#434343" stroke-width="3.0" stroke-linejoin="round" stroke-linecap="butt" d="m649.5757 296.98688l22.22052 0" fill-rule="evenodd"/><path stroke="#434343" stroke-width="3.0" stroke-linecap="butt" d="m671.7962 301.94208l13.614258 -4.9552l-13.614258 -4.9552z" fill-rule="evenodd"/><path fill="#000000" fill-opacity="0.0" d="m380.35522 276.78217l99.71652 0l0 40.409424l-99.71652 0z" fill-rule="evenodd"/><path fill="#000000" d="m397.5896 304.1869l-4.796875 -12.640625l-0.078125 0q0.046875 0.40625 0.0625 0.984375q0.03125 0.578125 0.046875 1.25q0.03125 0.671875 0.03125 1.375l0 9.03125l-1.546875 0l0 -14.28125l2.46875 0l4.515625 11.875l0.0625 0l4.59375 -11.875l2.4375 0l0 14.28125l-1.640625 0l0 -9.140625q0 -0.640625 0.015625 -1.28125q0.03125 -0.640625 0.0625 -1.203125q0.03125 -0.578125 0.046875 -1.0l-0.078125 0l-4.84375 12.625l-1.359375 0zm20.691406 -5.375q0 1.328125 -0.34375 2.359375q-0.34375 1.03125 -0.984375 1.75q-0.640625 0.703125 -1.5625 1.09375q-0.90625 0.375 -2.0625 0.375q-1.078125 0 -1.96875 -0.375q-0.890625 -0.390625 -1.546875 -1.09375q-0.640625 -0.71875 -1.0 -1.75q-0.359375 -1.03125 -0.359375 -2.359375q0 -1.75 0.59375 -2.984375q0.609375 -1.234375 1.703125 -1.890625q1.109375 -0.65625 2.65625 -0.65625q1.453125 0 2.546875 0.65625q1.109375 0.65625 1.71875 1.890625q0.609375 1.234375 0.609375 2.984375zm-8.140625 0q0 1.296875 0.34375 2.25q0.34375 0.9375 1.046875 1.453125q0.71875 0.515625 1.84375 0.515625q1.109375 0 1.828125 -0.515625q0.71875 -0.515625 1.0625 -1.453125q0.34375 -0.953125 0.34375 -2.25q0 -1.28125 -0.34375 -2.203125q-0.34375 -0.9375 -1.0625 -1.4375q-0.703125 -0.515625 -1.84375 -0.515625q-1.671875 0 -2.453125 1.109375q-0.765625 1.09375 -0.765625 3.046875zm14.75 5.578125q-2.03125 0 -3.21875 -1.390625q-1.1875 -1.390625 -1.1875 -4.125q0 -2.765625 1.203125 -4.171875q1.21875 -1.421875 3.234375 -1.421875q0.84375 0 1.484375 0.234375q0.640625 0.21875 1.09375 0.59375q0.453125 0.375 0.765625 0.859375l0.125 0q-0.046875 -0.296875 -0.09375 -0.828125q-0.03125 -0.53125 -0.03125 -0.859375l0 -4.296875l1.625 0l0 15.203125l-1.3125 0l-0.234375 -1.53125l-0.078125 0q-0.296875 0.484375 -0.765625 0.875q-0.453125 0.390625 -1.09375 0.625q-0.640625 0.234375 -1.515625 0.234375zm0.25 -1.359375q1.71875 0 2.4375 -0.96875q0.71875 -0.984375 0.71875 -2.90625l0 -0.296875q0 -2.03125 -0.6875 -3.125q-0.671875 -1.09375 -2.46875 -1.09375q-1.484375 0 -2.234375 1.15625q-0.734375 1.140625 -0.734375 3.109375q0 1.984375 0.734375 3.0625q0.734375 1.0625 2.234375 1.0625zm12.298828 -9.75q1.375 0 2.34375 0.609375q0.984375 0.609375 1.5 1.703125q0.515625 1.078125 0.515625 2.53125l0 1.015625l-7.390625 0q0.03125 1.875 0.9375 2.875q0.90625 0.984375 2.5625 0.984375q1.015625 0 1.796875 -0.1875q0.78125 -0.1875 1.609375 -0.546875l0 1.421875q-0.8125 0.359375 -1.609375 0.53125q-0.78125 0.171875 -1.875 0.171875q-1.546875 0 -2.6875 -0.625q-1.140625 -0.640625 -1.78125 -1.859375q-0.640625 -1.21875 -0.640625 -3.0q0 -1.71875 0.578125 -2.984375q0.59375 -1.265625 1.640625 -1.953125q1.0625 -0.6875 2.5 -0.6875zm-0.015625 1.328125q-1.296875 0 -2.078125 0.859375q-0.765625 0.84375 -0.90625 2.375l5.65625 0q0 -0.96875 -0.296875 -1.6875q-0.28125 -0.734375 -0.875 -1.140625q-0.578125 -0.40625 -1.5 -0.40625zm8.761719 9.578125l-1.640625 0l0 -15.203125l1.640625 0l0 15.203125z" fill-rule="nonzero"/><path fill="#fff2cc" d="m354.32147 296.98688l0 0c0 -5.983795 5.238617 -10.834656 11.700775 -10.834656l0 0c6.462158 0 11.700775 4.8508606 11.700775 10.834656l0 0c0 5.983795 -5.238617 10.834656 -11.700775 10.834656l0 0c-6.462158 0 -11.700775 -4.8508606 -11.700775 -10.834656z" fill-rule="evenodd"/><path stroke="#434343" stroke-width="3.0" stroke-linejoin="round" stroke-linecap="butt" d="m354.32147 296.98688l0 0c0 -5.983795 5.238617 -10.834656 11.700775 -10.834656l0 0c6.462158 0 11.700775 4.8508606 11.700775 10.834656l0 0c0 5.983795 -5.238617 10.834656 -11.700775 10.834656l0 0c-6.462158 0 -11.700775 -4.8508606 -11.700775 -10.834656z" fill-rule="evenodd"/><path fill="#000000" fill-opacity="0.0" d="m515.70074 274.35696l149.82678 0l0 43.62204l-149.82678 0z" fill-rule="evenodd"/><path fill="#000000" d="m528.3101 302.55695l-1.65625 0l0 -14.28125l7.953125 0l0 1.46875l-6.296875 0l0 5.234375l5.90625 0l0 1.453125l-5.90625 0l0 6.125zm10.041016 -10.703125l0 10.703125l-1.625 0l0 -10.703125l1.625 0zm-0.78125 -4.0q0.390625 0 0.671875 0.265625q0.296875 0.25 0.296875 0.796875q0 0.53125 -0.296875 0.796875q-0.28125 0.265625 -0.671875 0.265625q-0.421875 0 -0.703125 -0.265625q-0.28125 -0.265625 -0.28125 -0.796875q0 -0.546875 0.28125 -0.796875q0.28125 -0.265625 0.703125 -0.265625zm9.283203 3.796875q1.90625 0 2.875 0.9375q0.984375 0.9375 0.984375 3.0l0 6.96875l-1.609375 0l0 -6.859375q0 -1.34375 -0.609375 -2.0q-0.609375 -0.671875 -1.875 -0.671875q-1.765625 0 -2.5 1.015625q-0.71875 1.0 -0.71875 2.90625l0 5.609375l-1.625 0l0 -10.703125l1.3125 0l0.25 1.546875l0.078125 0q0.34375 -0.578125 0.875 -0.953125q0.53125 -0.390625 1.1875 -0.59375q0.65625 -0.203125 1.375 -0.203125zm11.3125 0q1.375 0 2.34375 0.609375q0.984375 0.609375 1.5 1.703125q0.515625 1.078125 0.515625 2.53125l0 1.015625l-7.390625 0q0.03125 1.875 0.9375 2.875q0.90625 0.984375 2.5625 0.984375q1.015625 0 1.796875 -0.1875q0.78125 -0.1875 1.609375 -0.546875l0 1.421875q-0.8125 0.359375 -1.609375 0.53125q-0.78125 0.171875 -1.875 0.171875q-1.546875 0 -2.6875 -0.625q-1.140625 -0.640625 -1.78125 -1.859375q-0.640625 -1.21875 -0.640625 -3.0q0 -1.71875 0.578125 -2.984375q0.59375 -1.265625 1.640625 -1.953125q1.0625 -0.6875 2.5 -0.6875zm-0.015625 1.328125q-1.296875 0 -2.078125 0.859375q-0.765625 0.84375 -0.90625 2.375l5.65625 0q0 -0.96875 -0.296875 -1.6875q-0.28125 -0.734375 -0.875 -1.140625q-0.578125 -0.40625 -1.5 -0.40625zm6.2148438 4.921875l0 -1.4375l4.84375 0l0 1.4375l-4.84375 0zm10.810547 3.515625q0.390625 0 0.8125 -0.0625q0.421875 -0.0625 0.6875 -0.171875l0 1.265625q-0.28125 0.125 -0.796875 0.21875q-0.5 0.09375 -0.96875 0.09375q-0.859375 0 -1.546875 -0.296875q-0.6875 -0.3125 -1.109375 -1.015625q-0.40625 -0.71875 -0.40625 -1.984375l0 -6.34375l-1.53125 0l0 -0.78125l1.53125 -0.640625l0.640625 -2.328125l0.984375 0l0 2.484375l3.140625 0l0 1.265625l-3.140625 0l0 6.296875q0 1.015625 0.453125 1.515625q0.46875 0.484375 1.25 0.484375zm12.503906 -9.5625l0 10.703125l-1.328125 0l-0.234375 -1.5l-0.09375 0q-0.328125 0.546875 -0.859375 0.9375q-0.515625 0.375 -1.1875 0.5625q-0.65625 0.203125 -1.390625 0.203125q-1.265625 0 -2.125 -0.40625q-0.859375 -0.421875 -1.296875 -1.28125q-0.4375 -0.859375 -0.4375 -2.203125l0 -7.015625l1.640625 0l0 6.890625q0 1.34375 0.59375 2.0q0.609375 0.65625 1.859375 0.65625q1.1875 0 1.890625 -0.4375q0.71875 -0.453125 1.03125 -1.328125q0.3125 -0.875 0.3125 -2.140625l0 -5.640625l1.625 0zm8.5 -0.203125q1.90625 0 2.875 0.9375q0.984375 0.9375 0.984375 3.0l0 6.96875l-1.609375 0l0 -6.859375q0 -1.34375 -0.609375 -2.0q-0.609375 -0.671875 -1.875 -0.671875q-1.765625 0 -2.5 1.015625q-0.71875 1.0 -0.71875 2.90625l0 5.609375l-1.625 0l0 -10.703125l1.3125 0l0.25 1.546875l0.078125 0q0.34375 -0.578125 0.875 -0.953125q0.53125 -0.390625 1.1875 -0.59375q0.65625 -0.203125 1.375 -0.203125zm8.8125 0.203125l0 10.703125l-1.625 0l0 -10.703125l1.625 0zm-0.78125 -4.0q0.390625 0 0.671875 0.265625q0.296875 0.25 0.296875 0.796875q0 0.53125 -0.296875 0.796875q-0.28125 0.265625 -0.671875 0.265625q-0.421875 0 -0.703125 -0.265625q-0.28125 -0.265625 -0.28125 -0.796875q0 -0.546875 0.28125 -0.796875q0.28125 -0.265625 0.703125 -0.265625zm9.283203 3.796875q1.90625 0 2.875 0.9375q0.984375 0.9375 0.984375 3.0l0 6.96875l-1.609375 0l0 -6.859375q0 -1.34375 -0.609375 -2.0q-0.609375 -0.671875 -1.875 -0.671875q-1.765625 0 -2.5 1.015625q-0.71875 1.0 -0.71875 2.90625l0 5.609375l-1.625 0l0 -10.703125l1.3125 0l0.25 1.546875l0.078125 0q0.34375 -0.578125 0.875 -0.953125q0.53125 -0.390625 1.1875 -0.59375q0.65625 -0.203125 1.375 -0.203125zm10.1875 15.71875q-2.109375 0 -3.265625 -0.796875q-1.140625 -0.78125 -1.140625 -2.203125q0 -1.0 0.640625 -1.71875q0.640625 -0.703125 1.78125 -0.9375q-0.421875 -0.203125 -0.71875 -0.59375q-0.296875 -0.390625 -0.296875 -0.890625q0 -0.59375 0.328125 -1.03125q0.328125 -0.453125 1.0 -0.859375q-0.84375 -0.34375 -1.375 -1.15625q-0.515625 -0.8125 -0.515625 -1.90625q0 -1.140625 0.46875 -1.953125q0.484375 -0.828125 1.390625 -1.25q0.921875 -0.4375 2.203125 -0.4375q0.28125 0 0.5625 0.03125q0.296875 0.015625 0.5625 0.0625q0.265625 0.046875 0.453125 0.109375l3.671875 0l0 1.046875l-1.96875 0.234375q0.296875 0.390625 0.484375 0.921875q0.203125 0.53125 0.203125 1.1875q0 1.609375 -1.09375 2.546875q-1.078125 0.9375 -2.96875 0.9375q-0.453125 0 -0.921875 -0.078125q-0.46875 0.265625 -0.71875 0.59375q-0.25 0.3125 -0.25 0.734375q0 0.3125 0.1875 0.5q0.1875 0.1875 0.546875 0.28125q0.359375 0.078125 0.875 0.078125l1.875 0q1.75 0 2.6875 0.734375q0.9375 0.71875 0.9375 2.140625q0 1.765625 -1.453125 2.71875q-1.4375 0.953125 -4.171875 0.953125zm0.046875 -1.28125q1.328125 0 2.203125 -0.265625q0.875 -0.265625 1.296875 -0.765625q0.4375 -0.5 0.4375 -1.203125q0 -0.640625 -0.296875 -0.96875q-0.28125 -0.328125 -0.859375 -0.4375q-0.5625 -0.109375 -1.375 -0.109375l-1.859375 0q-0.71875 0 -1.265625 0.21875q-0.53125 0.21875 -0.828125 0.65625q-0.28125 0.453125 -0.28125 1.109375q0 0.859375 0.734375 1.3125q0.734375 0.453125 2.09375 0.453125zm0.421875 -8.546875q1.15625 0 1.734375 -0.578125q0.59375 -0.59375 0.59375 -1.71875q0 -1.203125 -0.59375 -1.796875q-0.59375 -0.609375 -1.765625 -0.609375q-1.109375 0 -1.71875 0.625q-0.59375 0.609375 -0.59375 1.8125q0 1.09375 0.609375 1.6875q0.609375 0.578125 1.734375 0.578125z" fill-rule="nonzero"/><path fill="#000000" fill-opacity="0.0" d="m687.6063 274.35696l164.5669 0l0 43.62204l-164.5669 0z" fill-rule="evenodd"/><path fill="#000000" d="m698.55945 302.55695l0 -14.28125l1.65625 0l0 14.28125l-1.65625 0zm10.4140625 -10.90625q1.90625 0 2.875 0.9375q0.984375 0.9375 0.984375 3.0l0 6.96875l-1.609375 0l0 -6.859375q0 -1.34375 -0.609375 -2.0q-0.609375 -0.671875 -1.875 -0.671875q-1.765625 0 -2.5 1.015625q-0.71875 1.0 -0.71875 2.90625l0 5.609375l-1.625 0l0 -10.703125l1.3125 0l0.25 1.546875l0.078125 0q0.34375 -0.578125 0.875 -0.953125q0.53125 -0.390625 1.1875 -0.59375q0.65625 -0.203125 1.375 -0.203125zm10.65625 9.765625q0.390625 0 0.8125 -0.0625q0.421875 -0.0625 0.6875 -0.171875l0 1.265625q-0.28125 0.125 -0.796875 0.21875q-0.5 0.09375 -0.96875 0.09375q-0.859375 0 -1.546875 -0.296875q-0.6875 -0.3125 -1.109375 -1.015625q-0.40625 -0.71875 -0.40625 -1.984375l0 -6.34375l-1.53125 0l0 -0.78125l1.53125 -0.640625l0.640625 -2.328125l0.984375 0l0 2.484375l3.140625 0l0 1.265625l-3.140625 0l0 6.296875q0 1.015625 0.453125 1.515625q0.46875 0.484375 1.25 0.484375zm7.7851562 -9.765625q1.375 0 2.34375 0.609375q0.984375 0.609375 1.5 1.703125q0.515625 1.078125 0.515625 2.53125l0 1.015625l-7.390625 0q0.03125 1.875 0.9375 2.875q0.90625 0.984375 2.5625 0.984375q1.015625 0 1.796875 -0.1875q0.78125 -0.1875 1.609375 -0.546875l0 1.421875q-0.8125 0.359375 -1.609375 0.53125q-0.78125 0.171875 -1.875 0.171875q-1.546875 0 -2.6875 -0.625q-1.140625 -0.640625 -1.78125 -1.859375q-0.640625 -1.21875 -0.640625 -3.0q0 -1.71875 0.578125 -2.984375q0.59375 -1.265625 1.640625 -1.953125q1.0625 -0.6875 2.5 -0.6875zm-0.015625 1.328125q-1.296875 0 -2.078125 0.859375q-0.765625 0.84375 -0.90625 2.375l5.65625 0q0 -0.96875 -0.296875 -1.6875q-0.28125 -0.734375 -0.875 -1.140625q-0.578125 -0.40625 -1.5 -0.40625zm11.996094 -1.328125q0.3125 0 0.65625 0.046875q0.359375 0.03125 0.640625 0.09375l-0.203125 1.5q-0.265625 -0.078125 -0.59375 -0.109375q-0.3125 -0.046875 -0.609375 -0.046875q-0.640625 0 -1.21875 0.265625q-0.5625 0.265625 -1.0 0.75q-0.421875 0.46875 -0.671875 1.15625q-0.234375 0.671875 -0.234375 1.5l0 5.75l-1.640625 0l0 -10.703125l1.359375 0l0.171875 1.96875l0.0625 0q0.34375 -0.59375 0.8125 -1.078125q0.46875 -0.5 1.078125 -0.796875q0.625 -0.296875 1.390625 -0.296875zm8.330078 0q2.0 0 3.1875 1.390625q1.203125 1.375 1.203125 4.140625q0 1.8125 -0.546875 3.0625q-0.546875 1.234375 -1.546875 1.875q-0.984375 0.640625 -2.328125 0.640625q-0.859375 0 -1.5 -0.21875q-0.640625 -0.234375 -1.109375 -0.609375q-0.453125 -0.390625 -0.75 -0.84375l-0.125 0q0.03125 0.390625 0.078125 0.921875q0.046875 0.53125 0.046875 0.9375l0 4.390625l-1.640625 0l0 -15.484375l1.34375 0l0.21875 1.578125l0.078125 0q0.3125 -0.484375 0.75 -0.890625q0.453125 -0.40625 1.09375 -0.640625q0.65625 -0.25 1.546875 -0.25zm-0.28125 1.375q-1.109375 0 -1.796875 0.4375q-0.671875 0.421875 -0.984375 1.28125q-0.3125 0.84375 -0.328125 2.140625l0 0.3125q0 1.359375 0.296875 2.296875q0.296875 0.9375 0.984375 1.421875q0.6875 0.484375 1.84375 0.484375q1.0 0 1.65625 -0.53125q0.671875 -0.546875 1.0 -1.5q0.328125 -0.96875 0.328125 -2.21875q0 -1.890625 -0.734375 -3.0q-0.734375 -1.125 -2.265625 -1.125zm16.720703 4.15625q0 1.328125 -0.34375 2.359375q-0.34375 1.03125 -0.984375 1.75q-0.640625 0.703125 -1.5625 1.09375q-0.90625 0.375 -2.0625 0.375q-1.078125 0 -1.96875 -0.375q-0.890625 -0.390625 -1.546875 -1.09375q-0.640625 -0.71875 -1.0 -1.75q-0.359375 -1.03125 -0.359375 -2.359375q0 -1.75 0.59375 -2.984375q0.609375 -1.234375 1.703125 -1.890625q1.109375 -0.65625 2.65625 -0.65625q1.453125 0 2.546875 0.65625q1.109375 0.65625 1.71875 1.890625q0.609375 1.234375 0.609375 2.984375zm-8.140625 0q0 1.296875 0.34375 2.25q0.34375 0.9375 1.046875 1.453125q0.71875 0.515625 1.84375 0.515625q1.109375 0 1.828125 -0.515625q0.71875 -0.515625 1.0625 -1.453125q0.34375 -0.953125 0.34375 -2.25q0 -1.28125 -0.34375 -2.203125q-0.34375 -0.9375 -1.0625 -1.4375q-0.703125 -0.515625 -1.84375 -0.515625q-1.671875 0 -2.453125 1.109375q-0.765625 1.09375 -0.765625 3.046875zm12.578125 5.375l-1.640625 0l0 -15.203125l1.640625 0l0 15.203125zm7.423828 -10.875q1.90625 0 2.828125 0.859375q0.9375 0.859375 0.9375 2.734375l0 7.28125l-1.1875 0l-0.3125 -1.578125l-0.078125 0q-0.4375 0.578125 -0.9375 0.984375q-0.484375 0.390625 -1.125 0.59375q-0.640625 0.203125 -1.5625 0.203125q-0.984375 0 -1.75 -0.34375q-0.75 -0.34375 -1.1875 -1.03125q-0.421875 -0.703125 -0.421875 -1.765625q0 -1.609375 1.265625 -2.46875q1.265625 -0.859375 3.875 -0.9375l1.84375 -0.078125l0 -0.65625q0 -1.375 -0.609375 -1.9375q-0.59375 -0.5625 -1.671875 -0.5625q-0.84375 0 -1.609375 0.25q-0.75 0.25 -1.4375 0.578125l-0.5 -1.234375q0.71875 -0.375 1.65625 -0.625q0.9375 -0.265625 1.984375 -0.265625zm2.15625 5.59375l-1.625 0.078125q-2.0 0.078125 -2.828125 0.65625q-0.8125 0.578125 -0.8125 1.625q0 0.921875 0.546875 1.359375q0.5625 0.4375 1.484375 0.4375q1.421875 0 2.328125 -0.78125q0.90625 -0.796875 0.90625 -2.375l0 -1.0zm8.410156 4.140625q0.390625 0 0.8125 -0.0625q0.421875 -0.0625 0.6875 -0.171875l0 1.265625q-0.28125 0.125 -0.796875 0.21875q-0.5 0.09375 -0.96875 0.09375q-0.859375 0 -1.546875 -0.296875q-0.6875 -0.3125 -1.109375 -1.015625q-0.40625 -0.71875 -0.40625 -1.984375l0 -6.34375l-1.53125 0l0 -0.78125l1.53125 -0.640625l0.640625 -2.328125l0.984375 0l0 2.484375l3.140625 0l0 1.265625l-3.140625 0l0 6.296875q0 1.015625 0.453125 1.515625q0.46875 0.484375 1.25 0.484375zm5.2851562 -9.5625l0 10.703125l-1.625 0l0 -10.703125l1.625 0zm-0.78125 -4.0q0.390625 0 0.671875 0.265625q0.296875 0.25 0.296875 0.796875q0 0.53125 -0.296875 0.796875q-0.28125 0.265625 -0.671875 0.265625q-0.421875 0 -0.703125 -0.265625q-0.28125 -0.265625 -0.28125 -0.796875q0 -0.546875 0.28125 -0.796875q0.28125 -0.265625 0.703125 -0.265625zm9.283203 3.796875q1.90625 0 2.875 0.9375q0.984375 0.9375 0.984375 3.0l0 6.96875l-1.609375 0l0 -6.859375q0 -1.34375 -0.609375 -2.0q-0.609375 -0.671875 -1.875 -0.671875q-1.765625 0 -2.5 1.015625q-0.71875 1.0 -0.71875 2.90625l0 5.609375l-1.625 0l0 -10.703125l1.3125 0l0.25 1.546875l0.078125 0q0.34375 -0.578125 0.875 -0.953125q0.53125 -0.390625 1.1875 -0.59375q0.65625 -0.203125 1.375 -0.203125zm10.1875 15.71875q-2.109375 0 -3.265625 -0.796875q-1.140625 -0.78125 -1.140625 -2.203125q0 -1.0 0.640625 -1.71875q0.640625 -0.703125 1.78125 -0.9375q-0.421875 -0.203125 -0.71875 -0.59375q-0.296875 -0.390625 -0.296875 -0.890625q0 -0.59375 0.328125 -1.03125q0.328125 -0.453125 1.0 -0.859375q-0.84375 -0.34375 -1.375 -1.15625q-0.515625 -0.8125 -0.515625 -1.90625q0 -1.140625 0.46875 -1.953125q0.484375 -0.828125 1.390625 -1.25q0.921875 -0.4375 2.203125 -0.4375q0.28125 0 0.5625 0.03125q0.296875 0.015625 0.5625 0.0625q0.265625 0.046875 0.453125 0.109375l3.671875 0l0 1.046875l-1.96875 0.234375q0.296875 0.390625 0.484375 0.921875q0.203125 0.53125 0.203125 1.1875q0 1.609375 -1.09375 2.546875q-1.078125 0.9375 -2.96875 0.9375q-0.453125 0 -0.921875 -0.078125q-0.46875 0.265625 -0.71875 0.59375q-0.25 0.3125 -0.25 0.734375q0 0.3125 0.1875 0.5q0.1875 0.1875 0.546875 0.28125q0.359375 0.078125 0.875 0.078125l1.875 0q1.75 0 2.6875 0.734375q0.9375 0.71875 0.9375 2.140625q0 1.765625 -1.453125 2.71875q-1.4375 0.953125 -4.171875 0.953125zm0.046875 -1.28125q1.328125 0 2.203125 -0.265625q0.875 -0.265625 1.296875 -0.765625q0.4375 -0.5 0.4375 -1.203125q0 -0.640625 -0.296875 -0.96875q-0.28125 -0.328125 -0.859375 -0.4375q-0.5625 -0.109375 -1.375 -0.109375l-1.859375 0q-0.71875 0 -1.265625 0.21875q-0.53125 0.21875 -0.828125 0.65625q-0.28125 0.453125 -0.28125 1.109375q0 0.859375 0.734375 1.3125q0.734375 0.453125 2.09375 0.453125zm0.421875 -8.546875q1.15625 0 1.734375 -0.578125q0.59375 -0.59375 0.59375 -1.71875q0 -1.203125 -0.59375 -1.796875q-0.59375 -0.609375 -1.765625 -0.609375q-1.109375 0 -1.71875 0.625q-0.59375 0.609375 -0.59375 1.8125q0 1.09375 0.609375 1.6875q0.609375 0.578125 1.734375 0.578125z" fill-rule="nonzero"/><path fill="#000000" fill-opacity="0.0" d="m255.83727 180.54855l16.220474 -19.496063" fill-rule="evenodd"/><path stroke="#434343" stroke-width="3.0" stroke-linejoin="round" stroke-linecap="butt" d="m255.83727 180.54855l4.708145 -5.6589203" fill-rule="evenodd"/><path fill="#434343" stroke="#434343" stroke-width="3.0" stroke-linecap="butt" d="m264.35464 178.05885l4.898102 -13.634933l-12.516541 7.2964935z" fill-rule="evenodd"/><path fill="#000000" fill-opacity="0.0" d="m302.1496 161.26302l16.126007 20.15747" fill-rule="evenodd"/><path stroke="#434343" stroke-width="3.0" stroke-linejoin="round" stroke-linecap="butt" d="m302.1496 161.26302l4.8815002 6.101837" fill-rule="evenodd"/><path stroke="#434343" stroke-width="3.0" stroke-linecap="butt" d="m303.1617 170.46034l12.3741455 7.535492l-4.6354065 -13.726456z" fill-rule="evenodd"/><path fill="#000000" fill-opacity="0.0" d="m264.2915 198.68362l46.33072 0" fill-rule="evenodd"/><path stroke="#434343" stroke-width="3.0" stroke-linejoin="round" stroke-linecap="butt" d="m264.2915 198.68362l28.330719 0" fill-rule="evenodd"/><path stroke="#434343" stroke-width="3.0" stroke-linecap="butt" d="m292.62222 203.63882l13.614288 -4.9552l-13.614288 -4.9552z" fill-rule="evenodd"/><path fill="#000000" fill-opacity="0.0" d="m255.83727 217.92442l16.220474 19.496063" fill-rule="evenodd"/><path stroke="#434343" stroke-width="3.0" stroke-linejoin="round" stroke-linecap="butt" d="m255.83727 217.92444l4.708145 5.6589203" fill-rule="evenodd"/><path fill="#434343" stroke="#434343" stroke-width="3.0" stroke-linecap="butt" d="m256.7362 226.75258l12.516541 7.2964935l-4.898102 -13.634918z" fill-rule="evenodd"/><path fill="#000000" fill-opacity="0.0" d="m302.1496 237.20998l16.126007 -20.157486" fill-rule="evenodd"/><path stroke="#434343" stroke-width="3.0" stroke-linejoin="round" stroke-linecap="butt" d="m302.1496 237.20998l4.8815002 -6.1018524" fill-rule="evenodd"/><path stroke="#434343" stroke-width="3.0" stroke-linecap="butt" d="m310.90045 234.20361l4.6354065 -13.726456l-12.3741455 7.535492z" fill-rule="evenodd"/><path fill="#000000" fill-opacity="0.0" d="m440.52493 180.54855l16.220459 -19.496063" fill-rule="evenodd"/><path stroke="#434343" stroke-width="3.0" stroke-linejoin="round" stroke-linecap="butt" d="m440.52493 180.54855l4.7081604 -5.6589203" fill-rule="evenodd"/><path fill="#434343" stroke="#434343" stroke-width="3.0" stroke-linecap="butt" d="m449.0423 178.05885l4.8981323 -13.634933l-12.516541 7.2964935z" fill-rule="evenodd"/><path fill="#000000" fill-opacity="0.0" d="m486.83728 161.26302l16.125977 20.15747" fill-rule="evenodd"/><path stroke="#434343" stroke-width="3.0" stroke-linejoin="round" stroke-linecap="butt" d="m486.83728 161.26302l4.8814697 6.101837" fill-rule="evenodd"/><path stroke="#434343" stroke-width="3.0" stroke-linecap="butt" d="m487.8494 170.46034l12.3741455 7.535492l-4.635437 -13.726456z" fill-rule="evenodd"/><path fill="#000000" fill-opacity="0.0" d="m448.9792 198.68362l46.33069 0" fill-rule="evenodd"/><path stroke="#434343" stroke-width="3.0" stroke-linejoin="round" stroke-linecap="butt" d="m448.97916 198.68362l28.330719 0" fill-rule="evenodd"/><path stroke="#434343" stroke-width="3.0" stroke-linecap="butt" d="m477.30988 203.63882l13.614288 -4.9552l-13.614288 -4.9552z" fill-rule="evenodd"/><path fill="#000000" fill-opacity="0.0" d="m534.46454 180.75853l16.22052 -19.496063" fill-rule="evenodd"/><path stroke="#434343" stroke-width="3.0" stroke-linejoin="round" stroke-linecap="butt" d="m534.46454 180.75853l4.708191 -5.6589203" fill-rule="evenodd"/><path fill="#434343" stroke="#434343" stroke-width="3.0" stroke-linecap="butt" d="m542.98193 178.26881l4.8981323 -13.634918l-12.516541 7.2964935z" fill-rule="evenodd"/><path fill="#000000" fill-opacity="0.0" d="m580.7769 161.47299l16.125977 20.15747" fill-rule="evenodd"/><path stroke="#434343" stroke-width="3.0" stroke-linejoin="round" stroke-linecap="butt" d="m580.7769 161.47299l4.8814697 6.101837" fill-rule="evenodd"/><path stroke="#434343" stroke-width="3.0" stroke-linecap="butt" d="m581.789 170.67032l12.3741455 7.535492l-4.635437 -13.726456z" fill-rule="evenodd"/><path fill="#000000" fill-opacity="0.0" d="m542.9188 198.8936l46.33069 0" fill-rule="evenodd"/><path stroke="#434343" stroke-width="3.0" stroke-linejoin="round" stroke-linecap="butt" d="m542.9188 198.8936l28.330688 0" fill-rule="evenodd"/><path stroke="#434343" stroke-width="3.0" stroke-linecap="butt" d="m571.2495 203.8488l13.614319 -4.9552l-13.614319 -4.9552z" fill-rule="evenodd"/><path fill="#000000" fill-opacity="0.0" d="m719.8373 180.54855l16.220459 -19.496063" fill-rule="evenodd"/><path stroke="#434343" stroke-width="3.0" stroke-linejoin="round" stroke-linecap="butt" d="m719.8373 180.54855l4.70813 -5.6589203" fill-rule="evenodd"/><path fill="#434343" stroke="#434343" stroke-width="3.0" stroke-linecap="butt" d="m728.3546 178.05885l4.8981323 -13.634933l-12.516541 7.2964935z" fill-rule="evenodd"/><path fill="#000000" fill-opacity="0.0" d="m766.1496 161.26302l16.125977 20.15747" fill-rule="evenodd"/><path stroke="#434343" stroke-width="3.0" stroke-linejoin="round" stroke-linecap="butt" d="m766.1496 161.26302l4.8814697 6.101837" fill-rule="evenodd"/><path stroke="#434343" stroke-width="3.0" stroke-linecap="butt" d="m767.16174 170.46034l12.3741455 7.535492l-4.635437 -13.726456z" fill-rule="evenodd"/><path fill="#000000" fill-opacity="0.0" d="m728.2915 198.68362l46.33069 0" fill-rule="evenodd"/><path stroke="#434343" stroke-width="3.0" stroke-linejoin="round" stroke-linecap="butt" d="m728.2915 198.68362l28.330688 0" fill-rule="evenodd"/><path stroke="#434343" stroke-width="3.0" stroke-linecap="butt" d="m756.6222 203.63882l13.614319 -4.9552l-13.614319 -4.9552z" fill-rule="evenodd"/></g></svg>